<svg xmlns="http://www.w3.org/2000/svg" xmlns:xlink="http://www.w3.org/1999/xlink" width="350.552" height="108.706" viewBox="0 0 350.552 108.706">
  <defs>
    <filter id="Rectangle_1_copy_7" x="0" y="0" width="350.552" height="108.706" filterUnits="userSpaceOnUse">
      <feOffset dy="10" input="SourceAlpha" />
      <feGaussianBlur stdDeviation="7.5" result="blur" />
      <feFlood flood-color="#dfecff" />
      <feComposite operator="in" in2="blur" />
      <feComposite in="SourceGraphic" />
    </filter>
  </defs>
  <g transform="matrix(1, 0, 0, 1, 0, 0)" filter="url(#Rectangle_1_copy_7)">
    <g id="Rectangle_1_copy_7-2" data-name="Rectangle 1 copy 7" transform="translate(-3190.95 -1237.16)" fill="#ebfdff" stroke-linejoin="round">
      <path d="M 3486.52197265625 1312.866577148438 L 3245.298828125 1312.866577148438 C 3241.066162109375 1312.866577148438 3236.960205078125 1312.037719726562 3233.09521484375 1310.40283203125 C 3229.36181640625 1308.82373046875 3226.0087890625 1306.562866210938 3223.129150390625 1303.683227539062 C 3220.24951171875 1300.8037109375 3217.98876953125 1297.450561523438 3216.40966796875 1293.717163085938 C 3214.774658203125 1289.852172851562 3213.94580078125 1285.746337890625 3213.94580078125 1281.513671875 C 3213.94580078125 1277.280883789062 3214.774658203125 1273.174926757812 3216.40966796875 1269.309814453125 C 3217.98876953125 1265.576416015625 3220.24951171875 1262.223388671875 3223.129150390625 1259.34375 C 3226.0087890625 1256.464233398438 3229.36181640625 1254.203491210938 3233.09521484375 1252.624389648438 C 3236.960205078125 1250.989624023438 3241.066162109375 1250.160766601562 3245.298828125 1250.160766601562 L 3486.526611328125 1250.160766601562 L 3518.286376953125 1281.00390625 L 3486.52197265625 1312.866577148438 Z" stroke="none" />
      <path d="M 3486.314453125 1312.366577148438 L 3517.574462890625 1281.009765625 L 3486.32373046875 1250.660766601562 L 3245.298828125 1250.660766601562 C 3241.133544921875 1250.660766601562 3237.093017578125 1251.476318359375 3233.2900390625 1253.0849609375 C 3229.6162109375 1254.638793945312 3226.316650390625 1256.863525390625 3223.482666015625 1259.697387695312 C 3220.64892578125 1262.531127929688 3218.424072265625 1265.830810546875 3216.8701171875 1269.504638671875 C 3215.261474609375 1273.307739257812 3214.44580078125 1277.34814453125 3214.44580078125 1281.513671875 C 3214.44580078125 1285.679077148438 3215.261474609375 1289.719360351562 3216.8701171875 1293.5224609375 C 3218.424072265625 1297.196166992188 3220.64892578125 1300.495849609375 3223.482666015625 1303.329711914062 C 3226.316650390625 1306.16357421875 3229.6162109375 1308.388427734375 3233.2900390625 1309.9423828125 C 3237.093017578125 1311.550903320312 3241.133544921875 1312.366577148438 3245.298828125 1312.366577148438 L 3486.314453125 1312.366577148438 M 3486.7294921875 1313.366577148438 L 3245.298828125 1313.366577148438 C 3227.70751953125 1313.366577148438 3213.44580078125 1299.104858398438 3213.44580078125 1281.513671875 C 3213.44580078125 1263.921752929688 3227.70751953125 1249.660766601562 3245.298828125 1249.660766601562 L 3486.7294921875 1249.660766601562 L 3518.998046875 1280.998168945312 L 3486.7294921875 1313.366577148438 Z" stroke="none" fill="#c9d9ef" />
    </g>
  </g>
</svg>
