<svg xmlns="http://www.w3.org/2000/svg" xmlns:xlink="http://www.w3.org/1999/xlink" width="514.551" height="108.706" viewBox="0 0 514.551 108.706">
  <defs>
    <filter id="Rectangle_1_copy_6" x="0" y="0" width="514.551" height="108.706" filterUnits="userSpaceOnUse">
      <feOffset dy="10" input="SourceAlpha"/>
      <feGaussianBlur stdDeviation="7.5" result="blur"/>
      <feFlood flood-color="#dfecff"/>
      <feComposite operator="in" in2="blur"/>
      <feComposite in="SourceGraphic"/>
    </filter>
  </defs>
  <g transform="matrix(1, 0, 0, 1, 0, 0)" filter="url(#Rectangle_1_copy_6)">
    <g id="Rectangle_1_copy_6-2" data-name="Rectangle 1 copy 6" transform="translate(-3312.95 -1237.16)" fill="#ebfdff" stroke-linejoin="round">
      <path d="M 3772.52197265625 1312.866577148438 L 3367.29931640625 1312.866577148438 C 3363.06640625 1312.866577148438 3358.960693359375 1312.03759765625 3355.095458984375 1310.40283203125 C 3351.362060546875 1308.82373046875 3348.009033203125 1306.562866210938 3345.129638671875 1303.683227539062 C 3342.25 1300.8037109375 3339.9892578125 1297.450561523438 3338.41015625 1293.717163085938 C 3336.775390625 1289.852172851562 3335.946533203125 1285.746337890625 3335.946533203125 1281.513671875 C 3335.946533203125 1277.280883789062 3336.775390625 1273.1748046875 3338.41015625 1269.309814453125 C 3339.9892578125 1265.576416015625 3342.25 1262.223388671875 3345.129638671875 1259.34375 C 3348.009033203125 1256.464233398438 3351.362060546875 1254.20361328125 3355.095458984375 1252.624389648438 C 3358.960693359375 1250.989624023438 3363.06640625 1250.160766601562 3367.29931640625 1250.160766601562 L 3772.526611328125 1250.160766601562 L 3804.2861328125 1281.00390625 L 3772.52197265625 1312.866577148438 Z" stroke="none"/>
      <path d="M 3772.314453125 1312.366577148438 L 3803.57421875 1281.009643554688 L 3772.323974609375 1250.660766601562 L 3367.29931640625 1250.660766601562 C 3363.1337890625 1250.660766601562 3359.093505859375 1251.476318359375 3355.290283203125 1253.0849609375 C 3351.616455078125 1254.638793945312 3348.31689453125 1256.863525390625 3345.483154296875 1259.697387695312 C 3342.649169921875 1262.531127929688 3340.424560546875 1265.830810546875 3338.87060546875 1269.504638671875 C 3337.26220703125 1273.3076171875 3336.446533203125 1277.34814453125 3336.446533203125 1281.513671875 C 3336.446533203125 1285.679077148438 3337.26220703125 1289.719360351562 3338.87060546875 1293.5224609375 C 3340.424560546875 1297.196166992188 3342.6494140625 1300.495849609375 3345.483154296875 1303.329711914062 C 3348.31689453125 1306.16357421875 3351.61669921875 1308.388427734375 3355.290283203125 1309.942260742188 C 3359.093505859375 1311.550903320312 3363.1337890625 1312.366577148438 3367.29931640625 1312.366577148438 L 3772.314453125 1312.366577148438 M 3772.7294921875 1313.366577148438 L 3367.29931640625 1313.366577148438 C 3349.70751953125 1313.366577148438 3335.446533203125 1299.104858398438 3335.446533203125 1281.513671875 C 3335.446533203125 1263.921752929688 3349.70751953125 1249.660766601562 3367.29931640625 1249.660766601562 L 3772.7294921875 1249.660766601562 L 3804.997802734375 1280.998168945312 L 3772.7294921875 1313.366577148438 Z" stroke="none" fill="#c9d9ef"/>
    </g>
  </g>
</svg>
