<svg id="_-e-Vector_Smart_Object" data-name="-e-Vector Smart Object" xmlns="http://www.w3.org/2000/svg" xmlns:xlink="http://www.w3.org/1999/xlink" width="66" height="39" viewBox="0 0 66 39">
  <defs>
    <clipPath id="clip-path">
      <rect id="Rectangle_9" data-name="Rectangle 9" width="66" height="39" fill="none"/>
    </clipPath>
  </defs>
  <g id="Group_18" data-name="Group 18">
    <g id="Group_17" data-name="Group 17" clip-path="url(#clip-path)">
      <path id="Path_65" data-name="Path 65" d="M18.6,14.164a6.49,6.49,0,0,0,.241,1.93,11.541,11.541,0,0,0,.7,1.562.935.935,0,0,1,.154.5.857.857,0,0,1-.417.651l-1.383.911a1.061,1.061,0,0,1-.571.2,1.015,1.015,0,0,1-.659-.3,6.72,6.72,0,0,1-.79-1.019c-.22-.369-.439-.781-.68-1.28A8.148,8.148,0,0,1,8.743,20.3a6.057,6.057,0,0,1-4.39-1.562,5.537,5.537,0,0,1-1.624-4.165,5.555,5.555,0,0,1,2-4.468A8.049,8.049,0,0,1,10.1,8.416a17.584,17.584,0,0,1,2.327.174c.812.108,1.646.282,2.524.477V7.483a4.768,4.768,0,0,0-1.032-3.471,5.1,5.1,0,0,0-3.578-1A10.1,10.1,0,0,0,7.975,3.3,17.644,17.644,0,0,0,5.6,4.034a6.347,6.347,0,0,1-.768.282,1.361,1.361,0,0,1-.351.065c-.307,0-.461-.217-.461-.672V2.646a1.359,1.359,0,0,1,.154-.759,1.641,1.641,0,0,1,.615-.456A12.736,12.736,0,0,1,7.558.456,13.46,13.46,0,0,1,10.982.043c2.612,0,4.522.586,5.751,1.757a7.127,7.127,0,0,1,1.822,5.336v7.028Zm-8.912,3.3a7.191,7.191,0,0,0,2.261-.39,4.9,4.9,0,0,0,2.085-1.388,3.43,3.43,0,0,0,.746-1.388A7.7,7.7,0,0,0,15,12.407V11.5a18.529,18.529,0,0,0-2.019-.369A16.736,16.736,0,0,0,10.917,11a5.1,5.1,0,0,0-3.271.868A3.007,3.007,0,0,0,6.57,14.359a3.007,3.007,0,0,0,.812,2.3,3.065,3.065,0,0,0,2.3.8M27.314,19.8a1.236,1.236,0,0,1-.834-.217,1.762,1.762,0,0,1-.461-.846L20.86,1.974a3.761,3.761,0,0,1-.2-.868A.478.478,0,0,1,21.19.564h2.151A1.227,1.227,0,0,1,24.2.781a1.768,1.768,0,0,1,.439.846l3.688,14.359L31.748,1.627a1.515,1.515,0,0,1,.417-.846,1.524,1.524,0,0,1,.878-.217H34.8a1.333,1.333,0,0,1,.878.217,1.456,1.456,0,0,1,.417.846L39.563,16.16l3.8-14.533A1.853,1.853,0,0,1,43.8.781a1.445,1.445,0,0,1,.856-.217H46.7a.485.485,0,0,1,.549.542,2.138,2.138,0,0,1-.044.347A3.057,3.057,0,0,1,47.048,2l-5.29,16.767a1.658,1.658,0,0,1-.461.846,1.417,1.417,0,0,1-.834.217H38.575a1.333,1.333,0,0,1-.878-.217,1.531,1.531,0,0,1-.417-.868L33.877,4.75,30.5,18.719a1.685,1.685,0,0,1-.417.868,1.373,1.373,0,0,1-.878.217Zm28.207.586A14.692,14.692,0,0,1,52.14,20a10.065,10.065,0,0,1-2.524-.868,1.574,1.574,0,0,1-.68-.607,1.516,1.516,0,0,1-.132-.607V16.81c0-.456.176-.672.5-.672a1.257,1.257,0,0,1,.4.065c.132.043.329.13.549.217a12.043,12.043,0,0,0,2.415.759,13.335,13.335,0,0,0,2.612.26,5.98,5.98,0,0,0,3.2-.716,2.329,2.329,0,0,0,1.141-2.061,2.1,2.1,0,0,0-.593-1.518,5.529,5.529,0,0,0-2.217-1.128l-3.183-.976a6.7,6.7,0,0,1-3.512-2.212,5.129,5.129,0,0,1-1.1-3.145,4.782,4.782,0,0,1,.593-2.408A5.6,5.6,0,0,1,51.2,1.5,7,7,0,0,1,53.479.369,9.675,9.675,0,0,1,56.245,0a11.15,11.15,0,0,1,1.471.087c.5.065.966.152,1.427.239.439.108.856.217,1.251.347a4.821,4.821,0,0,1,.922.39,1.893,1.893,0,0,1,.659.542,1.159,1.159,0,0,1,.2.716V3.34c0,.456-.176.694-.5.694a2.3,2.3,0,0,1-.834-.26,10.145,10.145,0,0,0-4.215-.846,5.722,5.722,0,0,0-2.919.607,2.088,2.088,0,0,0-1.032,1.93,2.037,2.037,0,0,0,.659,1.54A6.585,6.585,0,0,0,55.74,8.2l3.117.976a6.686,6.686,0,0,1,3.4,2.082,4.87,4.87,0,0,1,1.01,3.037A5.521,5.521,0,0,1,62.7,16.81a5.85,5.85,0,0,1-1.6,1.909,7.108,7.108,0,0,1-2.437,1.215,10.554,10.554,0,0,1-3.139.456" fill="#252f3e"/>
      <path id="Path_66" data-name="Path 66" d="M59.67,30.931C52.448,36.2,41.955,39,32.933,39A48.7,48.7,0,0,1,.292,26.7c-.68-.607-.066-1.432.746-.954A66.437,66.437,0,0,0,33.7,34.315a65.856,65.856,0,0,0,24.914-5.032c1.207-.542,2.239.781,1.054,1.648m3.007-3.384c-.922-1.171-6.1-.564-8.451-.282-.7.087-.812-.521-.176-.976,4.127-2.863,10.91-2.039,11.7-1.085.79.976-.22,7.679-4.083,10.889-.593.5-1.163.239-.9-.412.878-2.147,2.832-6.984,1.91-8.134" fill="#f90"/>
    </g>
  </g>
</svg>
