<svg width="125" height="24" viewBox="0 0 125 24" fill="none" xmlns="http://www.w3.org/2000/svg">
  <path fill-rule="evenodd" clip-rule="evenodd" d="M0 5.64706V21.2469C0 22.7685 1.25065 24 2.7934 24H21.5578C23.1017 24 24.3512 22.7674 24.3512 21.2469V2.75311C24.3512 1.23147 23.1006 0 21.5578 0H10.206V2.75158C10.206 4.27203 9.02725 5.50459 7.48482 5.50459H6.88022L4.80322 7.96945L5.01349 5.64706H0ZM17.8662 7.97163C17.5167 7.37281 17.0631 6.87244 16.5054 6.47049C15.9478 6.06855 15.3153 5.76915 14.6078 5.57228C13.9004 5.3754 13.1638 5.27697 12.3981 5.27697C11.3494 5.27697 10.4172 5.44923 9.60155 5.79375C8.78589 6.13828 8.09509 6.61814 7.52913 7.23337C6.96317 7.84859 6.53454 8.57864 6.24323 9.42354C5.95193 10.2684 5.80628 11.1831 5.80628 12.1674C5.80628 13.119 5.96441 13.9926 6.28069 14.7883C6.59696 15.5839 7.03807 16.2689 7.60404 16.8431C8.17 17.4173 8.85664 17.8643 9.66397 18.1843C10.4713 18.5042 11.3577 18.6641 12.3232 18.6641C14.0377 18.6641 15.4443 18.2212 16.5429 17.3353C17.6415 16.4493 18.3074 15.1615 18.5404 13.4717H15.1197C15.0031 14.2592 14.716 14.8867 14.2582 15.3543C13.8005 15.8218 13.1471 16.0556 12.2982 16.0556C11.7489 16.0556 11.2828 15.9326 10.8999 15.6865C10.5171 15.4404 10.2133 15.1246 9.98856 14.739C9.76384 14.3535 9.60155 13.9228 9.50167 13.4471C9.4018 12.9713 9.35186 12.5037 9.35186 12.0444C9.35186 11.5686 9.4018 11.0887 9.50167 10.6048C9.60155 10.1208 9.77217 9.67784 10.0135 9.27589C10.2549 8.87395 10.567 8.54583 10.9499 8.29154C11.3327 8.03725 11.8071 7.91011 12.3731 7.91011C13.8879 7.91011 14.7618 8.64016 14.9948 10.1003H18.4655C18.4156 9.27999 18.2158 8.57044 17.8662 7.97163Z" fill="#292A2C" />
  <path fill-rule="evenodd" clip-rule="evenodd" d="M38.0142 11.4951H39.7731C39.7064 10.8839 39.5466 10.3557 39.2934 9.91056C39.0402 9.46543 38.7171 9.0967 38.324 8.80438C37.9309 8.51205 37.4779 8.29614 36.9648 8.15662C36.4518 8.0171 35.9022 7.94734 35.3159 7.94734C34.5031 7.94734 33.7902 8.09018 33.1772 8.37586C32.5643 8.66154 32.0546 9.05352 31.6482 9.5518C31.2418 10.0501 30.9387 10.6347 30.7388 11.3057C30.5389 11.9768 30.439 12.6976 30.439 13.4683C30.439 14.2389 30.5422 14.9465 30.7488 15.5909C30.9553 16.2354 31.2618 16.7901 31.6682 17.2552C32.0746 17.7202 32.5809 18.079 33.1872 18.3314C33.7935 18.5839 34.4897 18.7101 35.2759 18.7101C36.5951 18.7101 37.6378 18.3647 38.4039 17.6737C39.1701 16.9828 39.6465 15.9995 39.833 14.7239H38.0941C37.9875 15.5212 37.6977 16.139 37.2247 16.5775C36.7516 17.016 36.0954 17.2352 35.2559 17.2352C34.7229 17.2352 34.2632 17.1289 33.8768 16.9163C33.4904 16.7037 33.1772 16.4214 32.9374 16.0693C32.6975 15.7171 32.521 15.3152 32.4077 14.8634C32.2945 14.4117 32.2378 13.9466 32.2378 13.4683C32.2378 12.95 32.2911 12.4485 32.3977 11.9635C32.5043 11.4785 32.6809 11.05 32.9274 10.6779C33.1739 10.3059 33.5037 10.0069 33.9168 9.781C34.3298 9.55512 34.8428 9.44217 35.4558 9.44217C36.1753 9.44217 36.7483 9.62155 37.1747 9.98031C37.6011 10.3391 37.8809 10.844 38.0142 11.4951ZM42.6588 13.3487C42.6588 12.7242 42.742 12.1694 42.9086 11.6844C43.0752 11.1994 43.305 10.7908 43.5982 10.4587C43.8913 10.1265 44.2344 9.87402 44.6275 9.70128C45.0206 9.52854 45.437 9.44217 45.8767 9.44217C46.3164 9.44217 46.7328 9.52854 47.1259 9.70128C47.519 9.87402 47.8621 10.1265 48.1553 10.4587C48.4484 10.7908 48.6783 11.1994 48.8448 11.6844C49.0114 12.1694 49.0947 12.7242 49.0947 13.3487C49.0947 13.9732 49.0114 14.5279 48.8448 15.0129C48.6783 15.4979 48.4484 15.9032 48.1553 16.2287C47.8621 16.5543 47.519 16.8034 47.1259 16.9761C46.7328 17.1489 46.3164 17.2352 45.8767 17.2352C45.437 17.2352 45.0206 17.1489 44.6275 16.9761C44.2344 16.8034 43.8913 16.5543 43.5982 16.2287C43.305 15.9032 43.0752 15.4979 42.9086 15.0129C42.742 14.5279 42.6588 13.9732 42.6588 13.3487ZM40.8599 13.3487C40.8599 14.1061 40.9665 14.8103 41.1797 15.4614C41.3929 16.1125 41.7127 16.6805 42.1391 17.1655C42.5655 17.6505 43.0918 18.0292 43.7181 18.3015C44.3444 18.5739 45.0639 18.7101 45.8767 18.7101C46.7029 18.7101 47.4257 18.5739 48.0454 18.3015C48.665 18.0292 49.188 17.6505 49.6144 17.1655C50.0408 16.6805 50.3606 16.1125 50.5738 15.4614C50.787 14.8103 50.8936 14.1061 50.8936 13.3487C50.8936 12.5913 50.787 11.8837 50.5738 11.226C50.3606 10.5683 50.0408 9.99693 49.6144 9.51193C49.188 9.02694 48.665 8.64493 48.0454 8.36589C47.4257 8.08686 46.7029 7.94734 45.8767 7.94734C45.0639 7.94734 44.3444 8.08686 43.7181 8.36589C43.0918 8.64493 42.5655 9.02694 42.1391 9.51193C41.7127 9.99693 41.3929 10.5683 41.1797 11.226C40.9665 11.8837 40.8599 12.5913 40.8599 13.3487ZM52.1995 8.16122V18.5642H53.8984V12.0731C53.8984 11.8738 53.9484 11.6246 54.0483 11.3257C54.1483 11.0267 54.3082 10.7377 54.528 10.4587C54.7479 10.1796 55.0344 9.94045 55.3875 9.74114C55.7406 9.54183 56.1637 9.44217 56.6567 9.44217C57.0431 9.44217 57.3596 9.49865 57.6061 9.61159C57.8526 9.72453 58.0491 9.88398 58.1957 10.0899C58.3423 10.2959 58.4456 10.5384 58.5055 10.8174C58.5655 11.0965 58.5955 11.4021 58.5955 11.7343V18.5642H60.2944V12.0731C60.2944 11.2758 60.5342 10.638 61.0139 10.1597C61.4936 9.68135 62.1532 9.44217 62.9927 9.44217C63.4058 9.44217 63.7422 9.50197 64.0021 9.62155C64.2619 9.74114 64.4651 9.90391 64.6117 10.1099C64.7582 10.3158 64.8582 10.5583 64.9115 10.8374C64.9648 11.1164 64.9914 11.4154 64.9914 11.7343V18.5642H66.6904V10.937C66.6904 10.4055 66.6071 9.95042 66.4405 9.57173C66.274 9.19303 66.0408 8.8841 65.741 8.64493C65.4411 8.40576 65.0814 8.2297 64.6616 8.11676C64.2419 8.00381 63.7722 7.94734 63.2525 7.94734C62.573 7.94734 61.95 8.10015 61.3837 8.40576C60.8174 8.71137 60.361 9.14321 60.0146 9.70128C59.8014 9.06348 59.4349 8.61171 58.9153 8.34596C58.3956 8.08021 57.816 7.94734 57.1764 7.94734C55.7239 7.94734 54.6113 8.53198 53.8385 9.70128H53.7985V8.16122H52.1995ZM76.1119 12.3521H70.1757C70.2023 11.9535 70.2889 11.5781 70.4355 11.226C70.5821 10.8739 70.7819 10.565 71.0351 10.2992C71.2883 10.0335 71.5914 9.82419 71.9445 9.67138C72.2977 9.51858 72.6941 9.44217 73.1338 9.44217C73.5602 9.44217 73.9499 9.51858 74.3031 9.67138C74.6562 9.82419 74.9626 10.0301 75.2225 10.2892C75.4823 10.5484 75.6888 10.8573 75.8421 11.216C75.9953 11.5748 76.0853 11.9535 76.1119 12.3521ZM77.7509 15.2222H76.0719C75.9254 15.8999 75.6222 16.4048 75.1625 16.737C74.7028 17.0691 74.1132 17.2352 73.3936 17.2352C72.834 17.2352 72.3476 17.1422 71.9345 16.9562C71.5215 16.7702 71.1817 16.521 70.9152 16.2088C70.6487 15.8965 70.4555 15.5378 70.3356 15.1325C70.2156 14.7272 70.1623 14.2987 70.1757 13.8469H77.9108C77.9374 13.2224 77.8808 12.5647 77.7409 11.8738C77.601 11.1828 77.3478 10.545 76.9814 9.96038C76.6149 9.37573 76.1286 8.89407 75.5223 8.51538C74.916 8.13669 74.1531 7.94734 73.2337 7.94734C72.5275 7.94734 71.8779 8.08021 71.285 8.34596C70.692 8.61171 70.179 8.98376 69.7459 9.46211C69.3129 9.94045 68.9764 10.5052 68.7366 11.1563C68.4967 11.8073 68.3768 12.5248 68.3768 13.3088C68.4034 14.0928 68.52 14.8169 68.7266 15.4813C68.9331 16.1457 69.2429 16.717 69.656 17.1954C70.0691 17.6737 70.5787 18.0458 71.185 18.3115C71.7913 18.5773 72.5075 18.7101 73.3337 18.7101C74.5063 18.7101 75.479 18.4178 76.2518 17.8332C77.0247 17.2485 77.5243 16.3782 77.7509 15.2222ZM81.7159 8.16122V5.25H80.0169V8.16122H78.2581V9.64736H80.0169V16.3087C80.0169 16.787 80.0636 17.1724 80.1569 17.4647C80.2501 17.757 80.3934 17.9829 80.5866 18.1424C80.7798 18.3018 81.033 18.4114 81.3461 18.4712C81.6592 18.531 82.0357 18.5609 82.4754 18.5609H83.7746V17.0661H82.9951C82.7286 17.0661 82.512 17.0561 82.3455 17.0362C82.1789 17.0162 82.049 16.9731 81.9557 16.9066C81.8624 16.8402 81.7992 16.7472 81.7658 16.6276C81.7325 16.508 81.7159 16.3486 81.7159 16.1492V9.64736H83.7746V8.16122H81.7159ZM92.1768 11.814H94.955C94.915 11.1496 94.7551 10.5749 94.4753 10.0899C94.1955 9.60494 93.8324 9.19968 93.386 8.87414C92.9396 8.5486 92.4333 8.3061 91.867 8.14665C91.3007 7.9872 90.711 7.90748 90.0981 7.90748C89.2586 7.90748 88.5124 8.047 87.8595 8.32603C87.2066 8.60507 86.6536 8.99372 86.2005 9.492C85.7475 9.99028 85.4044 10.5816 85.1712 11.2659C84.938 11.9502 84.8214 12.6909 84.8214 13.4882C84.8214 14.2589 84.948 14.9664 85.2012 15.6109C85.4543 16.2553 85.8075 16.81 86.2605 17.2751C86.7136 17.7402 87.2632 18.1022 87.9095 18.3613C88.5557 18.6205 89.2653 18.75 90.0381 18.75C91.4106 18.75 92.5365 18.3912 93.416 17.6737C94.2954 16.9562 94.8284 15.9131 95.015 14.5445H92.2767C92.1834 15.1823 91.9536 15.6906 91.5871 16.0693C91.2207 16.448 90.6977 16.6373 90.0181 16.6373C89.5784 16.6373 89.2053 16.5376 88.8988 16.3383C88.5924 16.139 88.3492 15.8832 88.1693 15.571C87.9894 15.2587 87.8595 14.9099 87.7795 14.5246C87.6996 14.1393 87.6596 13.7606 87.6596 13.3885C87.6596 13.0032 87.6996 12.6145 87.7795 12.2226C87.8595 11.8306 87.9961 11.4718 88.1893 11.1463C88.3825 10.8207 88.6323 10.555 88.9388 10.349C89.2453 10.1431 89.625 10.0401 90.0781 10.0401C91.2907 10.0401 91.9902 10.6314 92.1768 11.814ZM96.3017 5.25V18.5642H99.1399V13.0896C99.1399 12.0399 99.3131 11.2858 99.6596 10.8274C100.006 10.369 100.566 10.1398 101.338 10.1398C102.018 10.1398 102.491 10.349 102.758 10.7676C103.024 11.1861 103.157 11.8206 103.157 12.671V18.5706H105.996V12.1528C105.996 11.515 105.939 10.9337 105.826 10.4088C105.712 9.88398 105.516 9.43885 105.236 9.07345C104.956 8.70804 104.573 8.42237 104.087 8.21641C103.6 8.01046 102.977 7.90748 102.218 7.90748C101.685 7.90748 101.139 8.04367 100.579 8.31607C100.019 8.58846 99.5596 9.02362 99.1998 9.62155H99.1399V5.25H96.3017ZM107.796 11.3556C107.836 10.6912 108.003 10.1398 108.296 9.70128C108.589 9.26279 108.962 8.91068 109.415 8.64493C109.868 8.37918 110.378 8.18984 110.944 8.07689C111.51 7.96395 112.08 7.90748 112.653 7.90748C113.173 7.90748 113.699 7.94402 114.232 8.0171C114.765 8.09018 115.251 8.23302 115.691 8.44562C116.131 8.65822 116.491 8.95386 116.77 9.33255C117.05 9.71125 117.19 10.2128 117.19 10.8374V16.1988C117.19 16.6639 117.217 17.109 117.27 17.5342C117.323 17.9594 117.551 18.358 117.685 18.5706H114.806C114.753 18.4112 114.575 18.1687 114.542 18.0026C114.509 17.8365 114.485 17.6671 114.472 17.4943C114.019 17.9594 113.486 18.2849 112.873 18.471C112.26 18.657 111.634 18.75 110.994 18.75C110.501 18.75 110.041 18.6902 109.615 18.5706C109.189 18.451 108.815 18.265 108.496 18.0126C108.176 17.7601 107.926 17.4412 107.746 17.0559C107.566 16.6705 107.476 16.2121 107.476 15.6806C107.476 15.096 107.58 14.6143 107.786 14.2356C107.993 13.8569 108.259 13.5546 108.586 13.3287C108.912 13.1029 109.285 12.9334 109.705 12.8205C110.125 12.7076 110.548 12.6179 110.974 12.5514C111.4 12.485 111.82 12.4318 112.233 12.392C112.646 12.3521 113.013 12.2923 113.333 12.2126C113.652 12.1329 113.906 12.0166 114.092 11.8638C114.279 11.711 114.365 11.4884 114.352 11.1961C114.352 10.8905 114.302 10.648 114.202 10.4686C114.102 10.2892 113.969 10.1497 113.802 10.0501C113.636 9.95042 113.443 9.88398 113.223 9.85076C113.003 9.81754 112.766 9.80094 112.513 9.80094C111.953 9.80094 111.514 9.92052 111.194 10.1597C110.874 10.3989 110.688 10.7975 110.634 11.3556H107.796ZM114.352 13.4483C114.232 13.5546 114.082 13.6377 113.902 13.6975C113.722 13.7573 113.529 13.8071 113.323 13.8469C113.116 13.8868 112.9 13.92 112.673 13.9466C112.447 13.9732 112.22 14.0064 111.993 14.0463C111.78 14.0861 111.57 14.1393 111.364 14.2057C111.157 14.2721 110.977 14.3618 110.824 14.4748C110.671 14.5877 110.548 14.7306 110.454 14.9033C110.361 15.076 110.315 15.2953 110.315 15.561C110.315 15.8135 110.361 16.0261 110.454 16.1988C110.548 16.3716 110.674 16.5078 110.834 16.6074C110.994 16.7071 111.181 16.7768 111.394 16.8167C111.607 16.8565 111.827 16.8765 112.053 16.8765C112.613 16.8765 113.046 16.7835 113.353 16.5974C113.659 16.4114 113.886 16.1889 114.032 15.9298C114.179 15.6706 114.269 15.4082 114.302 15.1425C114.335 14.8767 114.352 14.6641 114.352 14.5047V13.4483ZM122.721 8.22229V5.25H119.883V8.22229H118.164V10.08H119.883V16.159C119.883 16.6772 119.97 17.0957 120.143 17.4146C120.316 17.7335 120.553 17.9793 120.852 18.1521C121.152 18.3248 121.499 18.4411 121.892 18.5009C122.285 18.5607 122.701 18.5906 123.141 18.5906C123.421 18.5906 123.707 18.5839 124 18.5706C124.294 18.5573 124.56 18.5308 124.8 18.4909V16.2985C124.667 16.3251 124.527 16.345 124.38 16.3583C124.234 16.3716 124.08 16.3782 123.92 16.3782C123.441 16.3782 123.121 16.2985 122.961 16.139C122.801 15.9796 122.721 15.6607 122.721 15.1823V10.08H124.8V8.22229H122.721Z" fill="#292A2C" />
</svg>
  