<svg id="_-e-Vector_Smart_Object" data-name="-e-Vector Smart Object" xmlns="http://www.w3.org/2000/svg" xmlns:xlink="http://www.w3.org/1999/xlink" width="131" height="45" viewBox="0 0 131 45">
  <defs>
    <clipPath id="clip-path">
      <rect id="Rectangle_13" data-name="Rectangle 13" width="131" height="45" fill="none"/>
    </clipPath>
  </defs>
  <g id="Group_26" data-name="Group 26">
    <g id="Group_25" data-name="Group 25" clip-path="url(#clip-path)">
      <path id="Path_84" data-name="Path 84" d="M45.085,23.587A8.888,8.888,0,0,0,39.216,15.2,12.735,12.735,0,0,0,16.389,5.29a6.766,6.766,0,0,0-10.9,5.367,7.036,7.036,0,0,0,.419,2.368,8.935,8.935,0,0,0-.019,16.807,12.7,12.7,0,0,0,22.789,9.855,6.659,6.659,0,0,0,4.135,1.452,6.774,6.774,0,0,0,6.764-6.78,7.037,7.037,0,0,0-.419-2.368,8.99,8.99,0,0,0,5.926-8.4" fill="#fff"/>
      <path id="Path_85" data-name="Path 85" d="M17.723,19.385l9.87,4.507,9.946-8.747a10.475,10.475,0,0,0,.21-2.2,11.113,11.113,0,0,0-20.293-6.3L15.8,15.26Z" fill="#fed10a"/>
      <path id="Path_86" data-name="Path 86" d="M7.51,29.851a10.84,10.84,0,0,0-.21,2.235A11.157,11.157,0,0,0,27.689,38.37l1.639-8.575-2.191-4.2-9.908-4.526Z" fill="#24bbb1"/>
      <path id="Path_87" data-name="Path 87" d="M7.453,12.739l6.764,1.6,1.486-7.7a5.339,5.339,0,0,0-8.25,6.093" fill="#ef5098"/>
      <path id="Path_88" data-name="Path 88" d="M6.862,14.362a7.473,7.473,0,0,0-.324,14.076l9.489-8.594-1.734-3.724Z" fill="#17a8e0"/>
      <path id="Path_89" data-name="Path 89" d="M29.4,38.37a5.34,5.34,0,0,0,8.231-6.093L30.89,30.692Z" fill="#93c83e"/>
      <path id="Path_90" data-name="Path 90" d="M30.775,28.916l7.431,1.738a7.473,7.473,0,0,0,.324-14.076l-9.718,8.537Z" fill="#0779a1"/>
      <path id="Path_91" data-name="Path 91" d="M63.034,31.609l.9-.1.057,1.833a45.742,45.742,0,0,1-6.059.5q-3.344,0-4.744-1.948c-.934-1.3-1.391-3.323-1.391-6.054q0-8.193,6.5-8.193A5.934,5.934,0,0,1,62.977,19.4c1.029,1.165,1.543,3.018,1.543,5.52L64.387,26.7H54.136a6.3,6.3,0,0,0,.934,3.82,3.823,3.823,0,0,0,3.239,1.241,43.742,43.742,0,0,0,4.725-.153ZM62.2,24.867a6.773,6.773,0,0,0-.915-4.049,3.541,3.541,0,0,0-2.972-1.184A3.838,3.838,0,0,0,55.2,20.875a6.326,6.326,0,0,0-1.067,3.992Zm5.564-13.656h2.325V33.557H67.759ZM84.775,22.689v7.659c0,.783,1.924.936,1.924.936l-.114,2.063c-1.639,0-2.991.134-3.811-.649a13.631,13.631,0,0,1-5.583,1.165,4.166,4.166,0,0,1-3.258-1.222,5,5,0,0,1-1.124-3.5A4.35,4.35,0,0,1,73.952,25.8a6.035,6.035,0,0,1,3.6-1.318l4.878-.458V22.689a3.146,3.146,0,0,0-.686-2.273,2.53,2.53,0,0,0-1.867-.688H73.761V17.666h5.964a5.156,5.156,0,0,1,3.83,1.222A5.257,5.257,0,0,1,84.775,22.689ZM75.21,29.03c0,1.91.781,2.865,2.363,2.865a12.41,12.41,0,0,0,4.154-.707l.705-.248V25.8l-4.592.439a2.955,2.955,0,0,0-2.02.8,2.85,2.85,0,0,0-.61,1.986Zm18.654-9.282c-2.248,0-3.392.783-3.392,2.368a1.66,1.66,0,0,0,.781,1.547A13,13,0,0,0,94.8,24.6,9.21,9.21,0,0,1,98.7,25.955c.762.592,1.143,1.662,1.143,3.266A4.037,4.037,0,0,1,98.3,32.735a7.584,7.584,0,0,1-4.5,1.127c-1.277,0-5.564-.477-5.564-.477l.133-2.025c2.458.229,4.249.42,5.449.42a5.343,5.343,0,0,0,2.744-.573,2.089,2.089,0,0,0,.953-1.929,1.97,1.97,0,0,0-.8-1.833,11.632,11.632,0,0,0-3.544-.917,9.071,9.071,0,0,1-3.887-1.28,3.665,3.665,0,0,1-1.143-3.113,3.79,3.79,0,0,1,1.6-3.361,6.935,6.935,0,0,1,3.982-1.089c1.258,0,5.64.325,5.64.325v2.044c-2.306-.134-4.192-.306-5.507-.306m17.225.267h-4.935v7.449a10.4,10.4,0,0,0,.381,3.514c.248.554.876.84,1.848.84l2.763-.191.152,1.929a21.124,21.124,0,0,1-3.163.344,4.075,4.075,0,0,1-3.354-1.184c-.629-.783-.934-2.292-.934-4.507V20.016h-2.21V17.991h2.21V13.216h2.306v4.756h4.935Zm3.239-5.558V11.765h2.325v2.712Zm0,19.1V17.991h2.325V33.557Zm12.423-15.89a27.447,27.447,0,0,1,3.487.382l.743.1-.1,1.891a35.614,35.614,0,0,0-3.658-.287c-1.753,0-2.953.42-3.582,1.261s-.953,2.406-.953,4.679.286,3.858.877,4.756,1.81,1.337,3.677,1.337l3.658-.286.1,1.929a32.762,32.762,0,0,1-4.325.439c-2.42,0-4.1-.63-5.011-1.872s-1.391-3.342-1.391-6.3.5-5.042,1.486-6.226,2.668-1.8,4.992-1.8"/>
    </g>
  </g>
</svg>
