<svg xmlns="http://www.w3.org/2000/svg" width="117.54" height="44.28" viewBox="0 0 117.54 44.28">
  <path id="_-e-Shape_25" data-name="-e-Shape 25" d="M2084.172,3437.865l-4.762,4.721-13.519-3.78-3.526-13.709,4.761-4.719-4.7-4.8,3.743-13.651,13.578-3.544,4.7,4.8,4.761-4.721,13.519,3.78,3.527,13.71-4.761,4.72,4.683,4.8-3.743,13.65-13.578,3.544Zm2.7-2.721,3.135,3.212,7.152-1.88-5.722-5.856Zm-15.714,1.117,7.113,1.978,3.174-3.154-4.487-4.6Zm23-8.363s5.722,5.875,5.741,5.875l1.959-7.188-3.135-3.211Zm-27.528-1.607s1.843,7.227,1.862,7.227l5.8-5.778-4.488-4.6Zm13.069,1.489,4.487,4.6,4.565-4.524-4.486-4.6Zm7.289-7.246s4.487,4.622,4.487,4.6l4.566-4.523-4.488-4.6Zm-14.46-.118,4.487,4.6,4.566-4.524-4.486-4.6Zm21.749-7.109s4.488,4.6,4.507,4.6l3.173-3.153-1.861-7.227Zm-14.459-.117,4.486,4.6,4.566-4.524-4.487-4.6Zm-13.108,1.273,3.135,3.192,4.565-4.523-5.72-5.856Zm20.4-8.52s4.487,4.6,4.468,4.622l5.82-5.777-7.113-2Zm-15.693-1.39,5.72,5.855,4.566-4.523-3.135-3.212Zm42.34,24.363v-16.588h5.369q3.586,0,5.055,1.234a5.465,5.465,0,0,1,1.92,4.386,5.592,5.592,0,0,1-1.724,4.309,6.829,6.829,0,0,1-4.8,1.449h-1.8v5.209Zm4-8.97h1.7c1.744,0,2.625-.646,2.605-1.919,0-1.312-.921-1.958-2.782-1.958h-1.528Zm47.964,8.951v-16.589h5.525a9.626,9.626,0,0,1,5.173,1.2,7.172,7.172,0,0,1,2,1.919,8.473,8.473,0,0,1,1.49,5.112,8.579,8.579,0,0,1-2.117,6.071,7.294,7.294,0,0,1-5.622,2.292Zm4.213-3.761h1.783c2.684,0,4.017-1.488,4.036-4.465a5.1,5.1,0,0,0-1.038-3.407,3.691,3.691,0,0,0-2.959-1.2h-1.822Zm-11.952,3.761v-16.589h4.193V3428.9Zm-6.662,0-.784-2.409h-5.721l-.862,2.409h-4.506l6.583-16.589h3.331l6.525,16.589Zm-5.35-5.758h3.43l-1.705-5.679Zm-17.183,5.758v-16.589h4.173v12.828h4.859v3.761Z" transform="translate(-2062.365 -3398.384)" fill="#231f20"/>
</svg>
