<svg xmlns="http://www.w3.org/2000/svg" xmlns:xlink="http://www.w3.org/1999/xlink" width="1634" height="130" viewBox="0 0 1634 130">
  <defs>
    <clipPath id="clip-path">
      <rect id="Rectangle_1" data-name="Rectangle 1" width="1634" height="130" transform="translate(1013)" fill="#077997"/>
    </clipPath>
  </defs>
  <g id="Rectangle_1-2" data-name="Rectangle 1" transform="translate(-1013)">
    <rect id="Rectangle_1-3" data-name="Rectangle 1" width="1634" height="130" transform="translate(1013)" fill="#077997"/>
    <g id="Clip" clip-path="url(#clip-path)">
      <path id="Shape_2" data-name="Shape 2" d="M1777.964-79.016c-13.622,37.053-48.376,66.069-87.521,71.147-17.915,2.324-37.051.358-53.13,8.592-18.312,9.38-27.977,29.5-41.874,44.672-28.9,31.557-80.011,39.974-117.507,19.356s-57.768-68.285-46.61-109.6c6.541-24.22,22.52-46.042,23.5-71.111.775-19.79-7.953-38.508-14.28-57.276s-10.082-40.442-.175-57.593c11.969-20.718,38.782-26.768,62.622-28.764s49.913-2.764,68.042-18.375c11.375-9.8,17.782-24.053,27.288-35.671s27.034-19.613,40.984-14.074Z" fill="rgba(237,250,254,0)" stroke="#b5e4f4" stroke-width="2" opacity="0.302"/>
      <path id="Shape_3" data-name="Shape 3" d="M1753.623,266.306c-21.323-13.592-34.73-39.313-32.561-64.508.993-11.531,4.836-23.241,1.88-34.43-3.367-12.744-14.638-21.546-22.233-32.318-15.8-22.407-14.084-55.547,3.94-76.2s50.618-26.821,74.943-14.187c14.26,7.4,25.732,20.391,41.283,24.433,12.277,3.191,25.18.287,37.787-1.107s26.682-.781,36.059,7.766c11.328,10.324,11.452,27.934,9.444,43.129s-5.088,31.62,2.2,45.1c4.576,8.458,12.622,14.418,18.591,21.958s8.579,19.6,3.208,27.576Z" fill="rgba(237,250,254,0)" stroke="#b5e4f4" stroke-width="2" opacity="0.302"/>
      <path id="Shape_1" data-name="Shape 1" d="M2050.7,148.845c9.652-28.371,35.5-51.036,65.124-55.618,13.558-2.1,28.124-.962,40.178-7.511,13.728-7.459,20.692-22.907,30.96-34.68,21.356-24.483,60-31.823,88.855-16.874s45.13,50.746,37.427,82.305c-4.515,18.5-16.241,35.358-16.52,54.4-.221,15.033,6.755,29.074,11.908,43.2s8.406,30.5,1.2,43.7c-8.7,15.944-28.946,21.035-47.009,22.993s-37.844,3.025-51.318,15.21c-8.454,7.644-13.052,18.583-20.054,27.576s-20.159,15.386-30.854,11.442Z" fill="rgba(237,250,254,0)" stroke="#b5e4f4" stroke-width="2" opacity="0.302"/>
    </g>
  </g>
</svg>
