<svg xmlns="http://www.w3.org/2000/svg" width="31.004" height="30.999" viewBox="0 0 31.004 30.999">
  <path id="_-e-Shape_2092" data-name="-e-Shape 2092" d="M3637.258,1826a1.243,1.243,0,0,1-.824-1.349c.03-.876,0-1.755.012-2.632a1.047,1.047,0,0,1,1.275-1.109.972.972,0,0,1,.808.9c.02,1.088.022,2.178,0,3.266-.009.494-.379.742-.786.93Zm9.789-4.483q-1.158-1.108-2.268-2.267a1.045,1.045,0,0,1,1.47-1.472c.774.737,1.527,1.5,2.265,2.271a1.657,1.657,0,0,1,.258.535,1.094,1.094,0,0,1-.6,1.068,1.116,1.116,0,0,1-.5.127A.892.892,0,0,1,3647.047,1821.515Zm-20.7-.343a.938.938,0,0,1,.133-1.126q1.11-1.159,2.269-2.269a1.045,1.045,0,0,1,1.475,1.468c-.738.773-1.5,1.527-2.272,2.265a1.655,1.655,0,0,1-.535.259A1.1,1.1,0,0,1,3626.345,1821.172Zm11.138-2.441a8.238,8.238,0,1,1,.023,0Zm-6.1-8.238a6.117,6.117,0,1,0,6.123-6.11h-.005A6.134,6.134,0,0,0,3631.382,1810.493Zm20.268,1.067c-.494-.017-.989-.015-1.484-.011-.393,0-.787.005-1.179,0a1.041,1.041,0,0,1-1.073-1.3.968.968,0,0,1,.862-.774c1.108-.021,2.219-.026,3.327,0,.48.011.716.387.9.784v.484a1.215,1.215,0,0,1-1.263.821Zm-28.755-.036c-.479-.012-.718-.385-.9-.784v-.484a1.24,1.24,0,0,1,1.351-.819c.488.016.977.013,1.467.009.4,0,.8-.006,1.2,0a1.038,1.038,0,0,1,1.077,1.273.966.966,0,0,1-.866.8q-.855.017-1.71.018Q3623.7,1811.543,3622.9,1811.524Zm21.958-8.354a1,1,0,0,1-.077-1.418c.737-.775,1.5-1.527,2.271-2.266a1.7,1.7,0,0,1,.536-.259,1.1,1.1,0,0,1,1.069.6.936.936,0,0,1-.133,1.125q-1.107,1.161-2.267,2.269a.939.939,0,0,1-.655.261A1.073,1.073,0,0,1,3644.853,1803.17Zm-16.121.039q-1.146-1.1-2.243-2.252a1.7,1.7,0,0,1-.261-.534,1.094,1.094,0,0,1,.588-1.073.934.934,0,0,1,1.127.125c.781.744,1.546,1.505,2.288,2.289a1,1,0,0,1-.077,1.4,1.073,1.073,0,0,1-.752.317A.96.96,0,0,1,3628.732,1803.209Zm8.54-3.119a.966.966,0,0,1-.8-.869q-.037-1.648,0-3.295c.01-.5.38-.742.79-.927h.484a1.243,1.243,0,0,1,.816,1.352c-.034.917,0,1.835-.02,2.752a1.01,1.01,0,0,1-1.03,1.01A1.2,1.2,0,0,1,3637.272,1800.09Z" transform="translate(-3621.998 -1794.999)" fill="currentColor" />
</svg>
