<svg xmlns="http://www.w3.org/2000/svg" width="24.829" height="24.954" viewBox="0 0 24.829 24.954">
  <path id="_-e-Shape_2092" data-name="-e-Shape 2092" d="M3450.929,1821.114a5.876,5.876,0,0,1-1.047-.459,2.138,2.138,0,0,1-.89-1.894q0-3.075,0-6.151v-.308h-4.352v-1.463h4.333v-1.471h-4.342v-1.456h4.342v-1.466h-4.333v-1.461h4.332v-1.471h-4.34v-1.459h4.347v-1.46h-4.345v-1.457h4.342v-1.514h-4.358v-1.465h6.8a2.733,2.733,0,0,1,1.1.456,2.559,2.559,0,0,1,.8,1.148v21.745a2.557,2.557,0,0,1-.8,1.147,2.722,2.722,0,0,1-1.1.457Zm-.48-23.492v.246q0,10.456,0,20.913a1.335,1.335,0,0,0,.044.358.721.721,0,0,0,1.389-.024,1.829,1.829,0,0,0,.024-.411q0-10.068,0-20.135c0-.081,0-.162,0-.244a.708.708,0,0,0-.67-.7c-.093-.006-.186-.008-.281-.008C3450.794,1797.617,3450.629,1797.622,3450.45,1797.622Zm-18.65,23.492a8.754,8.754,0,0,1-.976-.254,3.648,3.648,0,0,1,.068-6.841,1.624,1.624,0,0,1,.488-.133.653.653,0,0,0,.551-.361q.957-1.4,1.935-2.794a.3.3,0,0,0,0-.42c-.72-1.026-1.445-2.049-2.133-3.1a10.545,10.545,0,0,1-1.7-5.194,14.1,14.1,0,0,1,.326-3.495c.042-.23.085-.46.14-.755,2.07,2.989,4.111,5.936,6.166,8.9,2.04-2.944,4.066-5.867,6.125-8.841.092.491.176.928.256,1.365a12.072,12.072,0,0,1,.213,2.8,10.412,10.412,0,0,1-1.682,5.247c-.679,1.045-1.4,2.059-2.117,3.081a.276.276,0,0,0-.008.38c.676.959,1.335,1.929,2.011,2.887a.6.6,0,0,0,.345.213,3.669,3.669,0,0,1,2.944,2.866,3.614,3.614,0,0,1-1.723,3.86,3.636,3.636,0,0,1-5.492-3.157,5.044,5.044,0,0,1,.2-1.165.4.4,0,0,0-.056-.374c-.339-.473-.666-.955-1.02-1.467-.17.243-.324.465-.479.687a2.6,2.6,0,0,1-.21.3,1.38,1.38,0,0,0-.311,1.433,3.539,3.539,0,0,1-2.019,3.977,10.011,10.011,0,0,1-1.174.352Zm.315-5.84a2.183,2.183,0,1,0,.01,0ZM3439,1817.4a2.182,2.182,0,1,0,2.2-2.179h-.043A2.174,2.174,0,0,0,3439,1817.4Zm-5.612-3.414,1.246.765c.375-.542.765-1.1,1.152-1.663l-.889-1.282C3434.376,1812.554,3433.876,1813.275,3433.387,1813.982Zm-1.881-11.96c0,.105,0,.211.014.316a9.445,9.445,0,0,0,1.66,4.423q2.692,3.88,5.377,7.762c.044.064.1.122.126.159l1.237-.76-8.413-12.147C3431.506,1801.911,3431.5,1801.967,3431.506,1802.021Zm9.978.267q-1.894,2.732-3.783,5.466c-.05.073-.123.2-.094.246.264.411.548.809.843,1.236.364-.526.7-1.018,1.045-1.506a12.558,12.558,0,0,0,1.832-3.262,7.5,7.5,0,0,0,.433-2.573C3441.667,1802.027,3441.575,1802.157,3441.484,1802.289Z" transform="translate(-3428.479 -1796.16)" fill="currentColor" />
</svg>
