<svg xmlns="http://www.w3.org/2000/svg" width="30.544" height="25.613" viewBox="0 0 30.544 25.613">
  <path id="_-e-Shape_2092" data-name="-e-Shape 2092" d="M3828.95,1795.193h1.431l.718.1a7.588,7.588,0,0,0,.006.86.694.694,0,0,1-.464.789,5.045,5.045,0,0,0-2.711,5.454,5.133,5.133,0,0,0,7.2,3.731,5.258,5.258,0,0,0,2.515-2.516c.048-.1.138-.241.215-.245.441-.024.885-.012,1.313-.012.037.267.066.49.1.713v1.489c-.038.234-.078.467-.115.7a9.512,9.512,0,0,1-3.174,5.8,9.663,9.663,0,0,1-2.57,1.624l.213.232a4.089,4.089,0,0,1-1.9,6.744c-.208.059-.42.1-.631.153h-17.777a.609.609,0,0,0-.134-.053,5.11,5.11,0,0,1-4.3-3.82c-.062-.236-.11-.476-.164-.715v-1.072a1.234,1.234,0,0,0,.053-.168,5.04,5.04,0,0,1,3.29-4.1.753.753,0,0,0,.55-.609,6.845,6.845,0,0,1,5.905-5.189c.48-.047.964-.049,1.418-.071a19.535,19.535,0,0,1,.243-2.026,9.462,9.462,0,0,1,7.074-7.481A16.3,16.3,0,0,1,3828.95,1795.193Zm-14.78,17.065c-.262.034-.468.066-.674.088a3.348,3.348,0,0,0,.489,6.674q5.771,0,11.541,0c1.72,0,3.44.017,5.159-.009a2.3,2.3,0,0,0,1.844-3.6,2.28,2.28,0,0,0-2.106-1c-.341.014-.466-.1-.538-.438a4.25,4.25,0,0,0-4.833-3.414c-.242.04-.485.066-.723.1a5.224,5.224,0,0,0-5.848-3.781,5.041,5.041,0,0,0-2.743,1.391A5.339,5.339,0,0,0,3814.17,1812.257Zm13.188-14.944c-.212.075-.426.142-.634.226a7.867,7.867,0,0,0-4.937,7.722c.009.2.111.265.265.332a6.761,6.761,0,0,1,3.246,2.9.4.4,0,0,0,.4.224,5.932,5.932,0,0,1,4.877,2.476c.292.392.515.837.771,1.26a7.7,7.7,0,0,0,5.775-5.432,6.936,6.936,0,0,1-4.75,1.333,6.827,6.827,0,0,1-4.425-2.135A7.054,7.054,0,0,1,3827.358,1797.313Z" transform="translate(-3808.727 -1795.193)" fill="currentColor" />
</svg>
