<svg xmlns="http://www.w3.org/2000/svg" width="26.468" height="31.444" viewBox="0 0 26.468 31.444">
  <path id="_-e-Shape_2091" data-name="-e-Shape 2091" d="M4010.1,1825.045c-3.083-2.961-6.181-5.908-9.245-8.89a12.512,12.512,0,0,1-3.738-7.56c-.036-.277-.078-.554-.117-.831V1806.2a1.481,1.481,0,0,0,.054-.241,12.433,12.433,0,0,1,.953-3.954,12.829,12.829,0,0,1,9.644-8.025c.5-.108,1.023-.165,1.535-.245h2.073c.5.077,1.012.13,1.509.235a13.2,13.2,0,0,1,6.747,22.3c-3.029,2.957-6.094,5.878-9.144,8.814-.029.029-.062.056-.107.1C4010.208,1825.132,4010.148,1825.094,4010.1,1825.045Zm-1.491-29.187a10.465,10.465,0,0,0-5.695,2.609,11.019,11.019,0,0,0-3.776,9.692,10.041,10.041,0,0,0,2.8,6.175c1.847,1.9,3.795,3.712,5.7,5.559.855.829,1.717,1.651,2.6,2.5.1-.091.179-.158.251-.228q3.694-3.557,7.384-7.116a11.15,11.15,0,0,0-7.53-19.317A12.73,12.73,0,0,0,4008.607,1795.858Zm.319,19.51a9.059,9.059,0,0,1-2.9-.6,4.848,4.848,0,0,1-3.23-4.661c-.023-.621.054-1.245.088-1.893-.126-.031-.277-.064-.426-.1a2.676,2.676,0,0,1-1.848-3.613,8.214,8.214,0,0,1,2.976-3.942,2.867,2.867,0,0,1,3.159-.339.355.355,0,0,0,.278-.04,6.024,6.024,0,0,1,6.049-.038.352.352,0,0,0,.274.039,2.675,2.675,0,0,1,2.89.119,7.655,7.655,0,0,1,3.437,4.715,2.64,2.64,0,0,1-2.092,3.056l-.331.071c.04.582.1,1.12.108,1.66a5,5,0,0,1-3.973,5.225,12.123,12.123,0,0,1-3.185.382C4009.773,1815.408,4009.35,1815.392,4008.926,1815.367Zm-.116-14.507a3.742,3.742,0,0,0-2.621,2.289c-.574,1.292-1.033,2.635-1.54,3.957a8.228,8.228,0,0,0-.526,2.434,3.708,3.708,0,0,0,2.475,4.023,4.264,4.264,0,0,0,.808.241c.651.112,1.308.2,2,.295,0-.945-.008-1.8.005-2.655a.406.406,0,0,0-.247-.413,2.557,2.557,0,0,1-1.134-1.256,1.518,1.518,0,0,1,.973-2.127,3.921,3.921,0,0,1,2.169,0,1.488,1.488,0,0,1,1.042,1.841,2.579,2.579,0,0,1-1.256,1.573c-.079.049-.194.134-.2.2-.012.916-.009,1.832-.009,2.779a8.3,8.3,0,0,0,2.789-.478,3.505,3.505,0,0,0,2.406-2.768,5.417,5.417,0,0,0-.075-2.422,30.274,30.274,0,0,0-1.933-5.272,4.912,4.912,0,0,0-1.132-1.477,3.753,3.753,0,0,0-2.582-.943A6.416,6.416,0,0,0,4008.81,1800.86Zm1.184,7.994c-.25.064-.671.075-.716.21-.116.343.213.575.476.757.121.084.365.159.45.1a3.162,3.162,0,0,0,.673-.666c.132-.175.007-.318-.2-.353-.186-.031-.375-.038-.471-.048s-.13,0-.165,0A.205.205,0,0,0,4009.994,1808.855Zm-5.054-7.513a1.264,1.264,0,0,0-.423.2,6.889,6.889,0,0,0-2.676,3.522,1.33,1.33,0,0,0,1.122,1.8c.252.052.354-.018.45-.264.707-1.794,1.112-3.721,2.347-5.282-.012-.032-.026-.065-.039-.1C4005.461,1801.26,4005.2,1801.283,4004.94,1801.342Zm9.441-.143a18.952,18.952,0,0,1,1.022,1.863c.483,1.148.894,2.328,1.319,3.5.081.222.179.287.408.24a1.356,1.356,0,0,0,1.139-1.9,7.106,7.106,0,0,0-2.544-3.365,1.763,1.763,0,0,0-1.051-.368A1.628,1.628,0,0,0,4014.38,1801.2Zm-6.767,4.477c-.008-.177,0-.354,0-.531s-.008-.354,0-.53a.661.661,0,0,1,1.318-.015c.017.364.015.729,0,1.093a.655.655,0,0,1-.651.629h-.008A.664.664,0,0,1,4007.613,1805.676Zm3.582.022c-.012-.186,0-.375,0-.562s-.01-.354,0-.531a.648.648,0,0,1,.662-.615.64.64,0,0,1,.657.618c.014.364.014.729,0,1.093a.654.654,0,0,1-.661.62A.663.663,0,0,1,4011.195,1805.7Z" transform="translate(-3996.998 -1793.733)" fill="currentColor" />
</svg>
