<svg xmlns="http://www.w3.org/2000/svg" width="23.678" height="23.965" viewBox="0 0 23.678 23.965">
  <path id="Shape_6" data-name="Shape 6" d="M1958.347,1324.143a11.748,11.748,0,0,0-16.749,0,12.1,12.1,0,0,0,0,16.948,11.752,11.752,0,0,0,16.753,0A12.1,12.1,0,0,0,1958.347,1324.143Zm-3.041,5.092-5.758,7.1a1,1,0,0,1-.741.372h-.037a1,1,0,0,1-.729-.316l-2.609-2.771a1.025,1.025,0,0,1,.035-1.438,1,1,0,0,1,1.422.035l1.825,1.938,5.035-6.212a1,1,0,0,1,1.416-.141A1.026,1.026,0,0,1,1955.307,1329.234Z" transform="translate(-1938.134 -1320.634)" fill="#077997"/>
</svg>
