<svg xmlns="http://www.w3.org/2000/svg" width="114.894" height="24.763" viewBox="0 0 114.894 24.763">
  <path id="_-e-Shape_24" data-name="-e-Shape 24" d="M1968.1,3428.443h3.753c.3.875,1.1,1.558,2.843,1.558,2.128,0,3.147-1.012,3.147-2.932v-1.537h-.083a4.566,4.566,0,0,1-3.7,1.647,6.342,6.342,0,0,1-6.245-6.719c0-4.251,2.52-6.849,6.1-6.849a4.57,4.57,0,0,1,3.918,1.865h.055v-1.517h3.623v12.986a5.448,5.448,0,0,1-1.687,4.28,7.457,7.457,0,0,1-5.108,1.592h-.047C1970.837,3432.817,1968.479,3431.172,1968.1,3428.443Zm3.4-8.038c0,2.358,1.268,3.787,3.2,3.787,2.348,0,3.346-1.7,3.346-3.814,0-2.051-1.108-3.814-3.373-3.814C1972.765,3416.564,1971.5,3418.047,1971.5,3420.405Zm-54.223.6c0-4.2,2.761-7.4,7.064-7.4,3.67,0,5.943,2.112,6.438,5.153h-3.684a2.589,2.589,0,0,0-2.6-2.166c-2.265,0-3.443,1.729-3.443,4.443s1.081,4.441,3.374,4.441a2.63,2.63,0,0,0,2.843-2.385h3.622c-.248,2.994-2.6,5.379-6.383,5.379C1920.062,3428.443,1917.274,3425.231,1917.274,3421.006Zm28.127.957h3.925c.276,2.358,1.633,3.289,4.449,3.289,2.045,0,3.842-.712,3.842-2.522,0-1.921-1.88-2.3-4.889-2.987-3.54-.8-6.775-1.715-6.775-5.816,0-3.869,3.235-5.872,7.573-5.872s7.182,2.092,7.574,5.9h-3.849c-.338-1.818-1.811-2.734-3.78-2.734-2.155,0-3.567.937-3.567,2.3,0,1.592,1.384,2.057,4.311,2.686,4.063.875,7.381,1.839,7.409,6.056,0,3.978-3.236,6.2-7.685,6.2C1948.582,3428.464,1945.538,3426.106,1945.4,3421.963Zm-43.709-.957a7.4,7.4,0,0,1,14.8,0,7.4,7.4,0,1,1-14.8,0Zm3.829,0c0,2.741,1.273,4.58,3.595,4.58s3.574-1.833,3.574-4.58h.02c0-2.733-1.3-4.606-3.594-4.606S1905.52,3418.266,1905.52,3421.006Zm31.2,7.43c-3.154,0-4.923-2-4.923-5.079v-9.4h3.732v8.75c0,1.646.751,2.549,2.347,2.549,1.77,0,2.851-1.312,2.851-3.178v-8.121h3.752v14.067h-3.614v-1.641h-.082a4.58,4.58,0,0,1-3.826,2.057C1936.876,3428.443,1936.8,3428.441,1936.718,3428.437Zm-44.633-.41h-7.98v-19.61h8.311c5.274,0,8.676,4.225,8.676,10.014a9.8,9.8,0,0,1-3.155,7.708,8.862,8.862,0,0,1-5.479,1.9Q1892.272,3428.034,1892.085,3428.026Zm-3.973-3.4,3.7-.021c3.752,0,5.219-2.276,5.219-6.152s-1.714-6.61-5.109-6.61h-3.808Zm104.11,3.4v-8.633a2.351,2.351,0,0,0-2.458-2.584,3,3,0,0,0-2.878,3.24v7.977h-3.753v-14.067h3.67v1.921h.083a4.624,4.624,0,0,1,4.2-2.3c2.933,0,4.9,2.194,4.9,5.263v9.186Zm-29.443,0v-14.053h3.753v14.053Zm33.23-12.953a1.494,1.494,0,1,1,1.494,1.483A1.489,1.489,0,0,1,1996.01,3415.073Zm.234,0a1.26,1.26,0,1,0,1.26-1.25A1.256,1.256,0,0,0,1996.244,3415.073Zm1.59.732-.3-.561h-.255v.561h-.283v-1.51h.482a.694.694,0,0,1,.474.109.458.458,0,0,1,.173.369.419.419,0,0,1-.3.417l.338.615Zm-.557-.793h.289a.233.233,0,0,0,.26-.2.281.281,0,0,0,0-.029.22.22,0,0,0-.117-.205.747.747,0,0,0-.3,0l-.13-.041Zm-34.5-3.021v-3.486h3.753v3.486Z" transform="translate(-1884.105 -3408.054)" fill="#231f20"/>
</svg>
