<svg id="_-e-Vector_Smart_Object" data-name="-e-Vector Smart Object" xmlns="http://www.w3.org/2000/svg" xmlns:xlink="http://www.w3.org/1999/xlink" width="146.639" height="23.004" viewBox="0 0 146.639 23.004">
  <defs>
    <clipPath id="clip-path">
      <rect id="Rectangle_11" data-name="Rectangle 11" width="146.639" height="23.004" fill="none"/>
    </clipPath>
  </defs>
  <g id="Group_22" data-name="Group 22">
    <g id="Group_21" data-name="Group 21" clip-path="url(#clip-path)">
      <path id="Path_72" data-name="Path 72" d="M17.248,6.032h.829L20.44,3.666l.116-1A10.618,10.618,0,0,0,3.279,7.85a1.283,1.283,0,0,1,.829-.05l4.726-.78s.24-.4.365-.374a5.889,5.889,0,0,1,8.067-.614Z" fill="#ea4335"/>
      <path id="Path_73" data-name="Path 73" d="M23.806,7.85A10.662,10.662,0,0,0,20.6,2.67L17.281,5.991a5.906,5.906,0,0,1,2.164,4.682v.589a2.955,2.955,0,0,1,0,5.911h-5.9l-.589.6v3.545l.589.589h5.9A7.689,7.689,0,0,0,23.806,7.85" fill="#4285f4"/>
      <path id="Path_74" data-name="Path 74" d="M7.631,21.872h5.9V17.14h-5.9a2.933,2.933,0,0,1-1.219-.266l-.829.257L3.2,19.5,3,20.328A7.629,7.629,0,0,0,7.631,21.872Z" fill="#34a853"/>
      <path id="Path_75" data-name="Path 75" d="M7.631,6.522A7.69,7.69,0,0,0,3,20.3l3.424-3.429a2.955,2.955,0,1,1,3.9-3.91L13.75,9.536A7.665,7.665,0,0,0,7.631,6.522" fill="#fbbc05"/>
      <path id="Path_76" data-name="Path 76" d="M42.9,18.568a7.548,7.548,0,0,1-5.472-2.25,7.311,7.311,0,0,1-2.3-5.413,7.318,7.318,0,0,1,2.3-5.413A7.547,7.547,0,0,1,42.9,3.2a7.324,7.324,0,0,1,5.248,2.117l-1.476,1.5A5.31,5.31,0,0,0,42.9,5.327,5.253,5.253,0,0,0,39,6.987a5.425,5.425,0,0,0-1.6,3.943A5.425,5.425,0,0,0,39,14.824a5.558,5.558,0,0,0,7.76.091A4.42,4.42,0,0,0,47.9,12.333H42.924V10.208h7.039a6.756,6.756,0,0,1,.083,1.3,6.647,6.647,0,0,1-1.816,4.9A7.05,7.05,0,0,1,42.9,18.568m16.366-1.411a5.069,5.069,0,0,1-7.022,0,4.735,4.735,0,0,1-1.434-3.528A4.743,4.743,0,0,1,52.243,10.1a5.077,5.077,0,0,1,7.022,0A4.744,4.744,0,0,1,60.7,13.628a4.735,4.735,0,0,1-1.443,3.528ZM53.793,15.77a2.684,2.684,0,0,0,3.8.125q.064-.06.125-.125a2.958,2.958,0,0,0,.829-2.142,2.966,2.966,0,0,0-.829-2.15,2.725,2.725,0,0,0-3.857-.082q-.042.04-.081.082a2.966,2.966,0,0,0-.829,2.15,2.958,2.958,0,0,0,.837,2.142Zm16.266,1.386a5.069,5.069,0,0,1-7.022,0A4.735,4.735,0,0,1,61.6,13.628,4.743,4.743,0,0,1,63.037,10.1a5.069,5.069,0,0,1,7.022,0,4.744,4.744,0,0,1,1.434,3.528,4.735,4.735,0,0,1-1.434,3.528M64.587,15.77a2.684,2.684,0,0,0,3.8.125q.064-.06.125-.125a2.958,2.958,0,0,0,.829-2.142,2.966,2.966,0,0,0-.829-2.15,2.725,2.725,0,0,0-3.857-.082q-.042.04-.081.082a2.966,2.966,0,0,0-.829,2.15,2.958,2.958,0,0,0,.837,2.142ZM77.156,23a4.34,4.34,0,0,1-2.761-.88,5.088,5.088,0,0,1-1.608-2.042l1.89-.789a3.187,3.187,0,0,0,.937,1.237,2.361,2.361,0,0,0,1.55.523A2.485,2.485,0,0,0,79.1,20.3a3.033,3.033,0,0,0,.688-2.158v-.714h-.075a3.157,3.157,0,0,1-2.595,1.121A4.5,4.5,0,0,1,73.8,17.107a4.777,4.777,0,0,1-1.418-3.479,4.827,4.827,0,0,1,1.418-3.5,4.491,4.491,0,0,1,3.316-1.453,3.562,3.562,0,0,1,1.525.34,3.068,3.068,0,0,1,1.078.789h.075V9.013h2.056v8.841a5.16,5.16,0,0,1-1.318,3.86A4.639,4.639,0,0,1,77.156,23Zm.149-6.376a2.411,2.411,0,0,0,1.874-.83,3.074,3.074,0,0,0,.754-2.125,3.141,3.141,0,0,0-.754-2.167,2.4,2.4,0,0,0-1.874-.83,2.56,2.56,0,0,0-1.94.83,3.032,3.032,0,0,0-.829,2.15,2.974,2.974,0,0,0,.829,2.125,2.568,2.568,0,0,0,1.94.847M85.5,3.757V18.269H83.341V3.757Zm5.936,14.81a4.706,4.706,0,0,1-3.49-1.42,4.81,4.81,0,0,1-1.4-3.52A4.869,4.869,0,0,1,87.9,10.075a4.441,4.441,0,0,1,3.316-1.386,4.182,4.182,0,0,1,1.658.324,3.9,3.9,0,0,1,1.268.83,5.81,5.81,0,0,1,.829,1,5.936,5.936,0,0,1,.489.971l.224.565-6.632,2.731a2.487,2.487,0,0,0,2.388,1.494,2.826,2.826,0,0,0,2.429-1.37l1.658,1.121a5.466,5.466,0,0,1-1.592,1.511A4.506,4.506,0,0,1,91.441,18.568Zm-2.769-5.089,4.411-1.835a1.527,1.527,0,0,0-.688-.755,2.244,2.244,0,0,0-1.136-.291,2.56,2.56,0,0,0-1.782.789,2.634,2.634,0,0,0-.8,2.092m18.347,5.089a6.836,6.836,0,0,1-6.948-6.722q0-.138,0-.277a6.836,6.836,0,0,1,6.671-7q.138,0,.276,0a6.181,6.181,0,0,1,4.916,2.192l-1.194,1.162a4.507,4.507,0,0,0-3.714-1.7A5.062,5.062,0,0,0,103.338,7.7a5.184,5.184,0,0,0-1.5,3.869,5.184,5.184,0,0,0,1.5,3.869,5.062,5.062,0,0,0,3.689,1.478,5.27,5.27,0,0,0,4.145-1.943l1.194,1.2a6.518,6.518,0,0,1-2.3,1.752,7.022,7.022,0,0,1-3.051.648m8.556-.3h-1.716V4.862h1.716Zm2.8-8.069a4.8,4.8,0,0,1,6.765,0,4.86,4.86,0,0,1,1.327,3.487,4.86,4.86,0,0,1-1.327,3.487,4.8,4.8,0,0,1-6.765,0,4.86,4.86,0,0,1-1.326-3.487A4.86,4.86,0,0,1,118.377,10.2Zm1.277,5.894a2.891,2.891,0,0,0,4.09.113q.058-.055.113-.113a3.323,3.323,0,0,0,.887-2.408,3.323,3.323,0,0,0-.887-2.407,2.891,2.891,0,0,0-4.09-.113q-.058.055-.113.113a3.323,3.323,0,0,0-.887,2.407,3.323,3.323,0,0,0,.9,2.4Zm16.324,2.175h-1.658V17h-.05a3.194,3.194,0,0,1-1.21,1.146,3.379,3.379,0,0,1-1.7.457,3.223,3.223,0,0,1-2.6-1.046,4.155,4.155,0,0,1-.887-2.806V9.1h1.716v5.33q0,2.565,2.263,2.565a2.1,2.1,0,0,0,1.741-.83,3.133,3.133,0,0,0,.672-1.984V9.1h1.716Zm5.828.3a4.027,4.027,0,0,1-3.068-1.4,4.985,4.985,0,0,1-1.285-3.479,4.985,4.985,0,0,1,1.285-3.478,4.027,4.027,0,0,1,3.068-1.4,3.885,3.885,0,0,1,1.874.448,3.177,3.177,0,0,1,1.244,1.121H145l-.075-1.27V4.862h1.716V18.269h-1.658V17h-.075a3.176,3.176,0,0,1-1.244,1.121,3.884,3.884,0,0,1-1.857.448M142.088,17a2.734,2.734,0,0,0,2.064-.9,3.365,3.365,0,0,0,.829-2.416,3.365,3.365,0,0,0-.829-2.416,2.8,2.8,0,0,0-3.959-.187q-.1.089-.187.187a3.323,3.323,0,0,0-.829,2.407,3.323,3.323,0,0,0,.829,2.407,2.734,2.734,0,0,0,2.081.913" fill="#5f6368"/>
    </g>
  </g>
</svg>
