<svg id="_-e-Vector_Smart_Object" data-name="-e-Vector Smart Object" xmlns="http://www.w3.org/2000/svg" xmlns:xlink="http://www.w3.org/1999/xlink" width="86.933" height="78.186" viewBox="0 0 86.933 78.186">
  <defs>
    <clipPath id="clip-path">
      <rect id="Rectangle_12" data-name="Rectangle 12" width="86.933" height="78.186" fill="none"/>
    </clipPath>
  </defs>
  <g id="Group_24" data-name="Group 24">
    <g id="Group_23" data-name="Group 23" clip-path="url(#clip-path)">
      <path id="Path_77" data-name="Path 77" d="M44.063,70.511l3.564-1.481a1.541,1.541,0,0,0-1.481-.844,2.183,2.183,0,0,0-2.083,2.324m4.184,1.433,1.36.9a3.966,3.966,0,0,1-3.323,1.769,3.855,3.855,0,0,1-3.9-3.986,3.744,3.744,0,0,1,3.706-3.986,3.817,3.817,0,0,1,3.594,2.987l-5.338,2.2a2.03,2.03,0,0,0,1.933,1.21,2.276,2.276,0,0,0,1.959-1.1m-8.653,2.432h1.752V62.668H39.586Zm-2.858-3.732A2.25,2.25,0,0,0,34.6,68.212a2.426,2.426,0,0,0,0,4.834,2.227,2.227,0,0,0,2.131-2.4m1.541-3.758v7.145c0,2.944-1.735,4.154-3.788,4.154a3.8,3.8,0,0,1-3.534-2.355l1.524-.633a2.208,2.208,0,0,0,2.01,1.42c1.959-.223,2.131-1.489,2.131-2.914h-.065a2.725,2.725,0,0,1-2.1.908,3.992,3.992,0,0,1,0-7.976,2.761,2.761,0,0,1,2.1.891h.06v-.65s1.662,0,1.662,0ZM19.156,70.632a2.217,2.217,0,1,0-2.208,2.415,2.279,2.279,0,0,0,2.208-2.415m1.722,0a3.931,3.931,0,1,1-3.93-3.986,3.9,3.9,0,0,1,3.93,3.986m7.1,0a2.217,2.217,0,1,0-2.208,2.415,2.279,2.279,0,0,0,2.208-2.415m1.722,0a3.931,3.931,0,1,1-3.93-3.986,3.9,3.9,0,0,1,3.93,3.986M6.285,74.617a6.2,6.2,0,1,1,0-12.4,5.891,5.891,0,0,1,4.244,1.709L9.337,65.122a4.307,4.307,0,0,0-3.052-1.21,4.477,4.477,0,0,0,0,8.953,4.143,4.143,0,0,0,3.125-1.24,3.536,3.536,0,0,0,.921-2.131H6.285V67.8h5.682a5.5,5.5,0,0,1,.09,1.055,5.492,5.492,0,0,1-5.768,5.7" fill="#5f6368" fill-rule="evenodd"/>
      <path id="Path_78" data-name="Path 78" d="M53.8,74.288V63.879h1.344l3.615,6.339h.054l3.615-6.339h1.344V74.288H62.427l.054-7.92h-.054l-3.252,5.7h-.781l-3.252-5.7h-.054c.1,2.634.054,5.286.054,7.92Zm14.17.182a2.78,2.78,0,0,1-1.889-.654,2.17,2.17,0,0,1-.763-1.726,2.12,2.12,0,0,1,.908-1.816,3.68,3.68,0,0,1,2.216-.654,3.778,3.778,0,0,1,1.926.436,1.761,1.761,0,0,0-1.871-1.925,1.8,1.8,0,0,0-1.708,1.035l-1.217-.527a2.777,2.777,0,0,1,.981-1.181,3.146,3.146,0,0,1,1.926-.545,3.331,3.331,0,0,1,2.271.8,2.862,2.862,0,0,1,.908,2.252v4.305H70.384v-.981a3.023,3.023,0,0,1-2.416,1.181Zm2.4-3.306a3.009,3.009,0,0,0-3.179-.054,1.127,1.127,0,0,0-.036,1.816,2.172,2.172,0,0,0,3.215-1.762m6.5,3.306a2.915,2.915,0,0,1-1.453-.345,2.652,2.652,0,0,1-.963-.872H74.38l.054.981v3.143H73.109V67.113H74.38v.981h.054a2.513,2.513,0,0,1,.963-.872,3.012,3.012,0,0,1,1.453-.345,3.122,3.122,0,0,1,2.38,1.09,4.167,4.167,0,0,1,0,5.413A3.085,3.085,0,0,1,76.869,74.469Zm-.218-1.235a2.139,2.139,0,0,0,1.6-.708,2.94,2.94,0,0,0,0-3.742,2.177,2.177,0,0,0-3.2-.018,2.639,2.639,0,0,0-.654,1.871,2.609,2.609,0,0,0,.654,1.871,1.986,1.986,0,0,0,1.6.727m7.484,1.235a3.186,3.186,0,0,1-1.962-.581,3.441,3.441,0,0,1-1.144-1.453l1.2-.49a1.975,1.975,0,0,0,1.926,1.344,1.725,1.725,0,0,0,1.017-.272.82.82,0,0,0,.4-.727c0-.472-.327-.781-.981-.945L83.155,71a3.473,3.473,0,0,1-1.29-.654,1.6,1.6,0,0,1-.618-1.308,1.752,1.752,0,0,1,.836-1.526,3.308,3.308,0,0,1,1.98-.581,3.251,3.251,0,0,1,1.689.436A2.348,2.348,0,0,1,86.806,68.6l-1.163.472a1.564,1.564,0,0,0-1.635-.945,1.889,1.889,0,0,0-1,.254.738.738,0,0,0-.4.672c0,.4.309.69.945.836l1.417.327a2.728,2.728,0,0,1,1.49.8,1.877,1.877,0,0,1,.472,1.272,1.961,1.961,0,0,1-.781,1.6,3.4,3.4,0,0,1-2.016.581Z" fill="#63666a"/>
      <path id="Path_79" data-name="Path 79" d="M35.8,39.17a51.364,51.364,0,0,1,4.163,6.155,31.988,31.988,0,0,1,2.286,5.811c.461,1.334.9,1.739,1.821,1.739,1.007,0,1.468-.68,1.821-1.739a32.533,32.533,0,0,1,2.2-5.682c3.47-6.543,9.126-11.192,12.312-17.562a21.472,21.472,0,0,0,2.1-9.341,18.5,18.5,0,0,0-2.066-8.609L35.811,39.213Z" fill="#34a853"/>
      <path id="Path_80" data-name="Path 80" d="M27.447,27.2c1.984,4.52,5.768,8.48,8.351,11.966L49.487,22.943a7.193,7.193,0,0,1-5.424,2.531A7.016,7.016,0,0,1,37,18.457a7.592,7.592,0,0,1,1.606-4.563c-10.073,1.5-9.514,3.939-11.192,13.3Z" fill="#fbbc04"/>
      <path id="Path_81" data-name="Path 81" d="M49.66.848A18.211,18.211,0,0,1,60.421,9.93L49.487,22.973a7.623,7.623,0,0,0,1.606-4.563,7.086,7.086,0,0,0-7.017-7.016,7.306,7.306,0,0,0-5.424,2.5c.839-1.911,9.514-12.4,11.02-13.042Z" fill="#4285f4"/>
      <path id="Path_82" data-name="Path 82" d="M29.944,6.586A18.3,18.3,0,0,1,44.02,0a18.727,18.727,0,0,1,5.6.844L38.639,13.886c-.74-.4-7.964-6.026-8.7-7.318Z" fill="#1a73e8"/>
      <path id="Path_83" data-name="Path 83" d="M27.447,27.2a21.043,21.043,0,0,1-1.8-8.695,18.357,18.357,0,0,1,4.3-11.88l8.7,7.318L27.46,27.2Z" fill="#ea4335"/>
    </g>
  </g>
</svg>
