<svg xmlns="http://www.w3.org/2000/svg" width="152.655" height="45.814" viewBox="0 0 152.655 45.814">
  <path id="_-e-Shape_26" data-name="-e-Shape 26" d="M1458,3530.939a23.148,23.148,0,1,1,23.14,22.914A23.047,23.047,0,0,1,1458,3530.939Zm2.038.157a21.116,21.116,0,1,0,21.116-21A21.05,21.05,0,0,0,1460.038,3531.1Zm3.808.057a17.194,17.194,0,0,1,8.582-14.865l8.743,13.618,8.839-13.561a17.176,17.176,0,0,1-.911,30.126l-1.469-5.582a10.637,10.637,0,0,0,5.217-9.241,10.746,10.746,0,0,0-1.824-6.037l-7.614,11.282H1478.8l-7.614-11.282a10.712,10.712,0,0,0-1.825,6.037,10.511,10.511,0,0,0,5.917,9.58l-1.425,5.542A17.2,17.2,0,0,1,1463.846,3531.153Zm70.488,8.432a5.05,5.05,0,0,1-1.4-3.9v-8.827h2.794v8.4c0,2.155,1.241,3.076,2.795,3.076a2.752,2.752,0,0,0,2.866-3.076v-8.375h2.8v13.789h-2.74v-1.39a4.954,4.954,0,0,1-3.691,1.544A4.882,4.882,0,0,1,1534.333,3539.585Zm49.228-.4c-1.313-1.359-1.64-3.1-1.64-5.44,0-2.311.328-4.055,1.64-5.415a5.618,5.618,0,0,1,4.135-1.63,5.69,5.69,0,0,1,4.163,1.63c1.312,1.359,1.64,3.1,1.64,5.415,0,2.337-.328,4.081-1.64,5.44a5.685,5.685,0,0,1-4.163,1.63A5.567,5.567,0,0,1,1583.562,3539.188Zm2.11-9.224c-.842.849-.955,2.281-.955,3.784s.1,2.947.955,3.783a2.775,2.775,0,0,0,2.026.808,2.866,2.866,0,0,0,2.054-.808c.841-.85.955-2.294.955-3.783s-.114-2.948-.955-3.784a2.842,2.842,0,0,0-2.054-.794A2.778,2.778,0,0,0,1585.671,3529.964Zm-32.447,3.782c0-4.463,2.324-7.042,5.873-7.042l0,0c3.723,0,5.874,2.721,5.86,6.646v1.219h-9c0,2.365,1.268,3.855,3.536,3.855a4.183,4.183,0,0,0,3.364-1.417l1.8,1.659a6.483,6.483,0,0,1-5.19,2.155C1555.989,3540.817,1553.224,3538.989,1553.224,3533.746Zm3.108-2.989a4.384,4.384,0,0,0-.357,1.87h6.245a4.349,4.349,0,0,0-.384-1.87,2.87,2.87,0,0,0-2.738-1.743A2.911,2.911,0,0,0,1556.332,3530.757Zm10.106,7.5,1.966-1.928a6.492,6.492,0,0,0,4.976,1.842c2.535,0,4.02-1.091,4.02-2.961a2.619,2.619,0,0,0-.77-2.013,3.328,3.328,0,0,0-2.138-.822l-2.294-.326a6.607,6.607,0,0,1-3.692-1.545,4.822,4.822,0,0,1-1.426-3.7c0-3.371,2.466-5.682,6.516-5.682a8.254,8.254,0,0,1,6.044,2.2l-1.882,1.843a5.745,5.745,0,0,0-4.235-1.49c-2.295,0-3.549,1.3-3.549,3.017a2.352,2.352,0,0,0,.741,1.8,4.475,4.475,0,0,0,2.181.893l2.211.325a6.468,6.468,0,0,1,3.635,1.445v0a5.122,5.122,0,0,1,1.6,3.968c0,3.558-2.921,5.682-7,5.682C1570.4,3540.808,1568.292,3540.127,1566.438,3538.257Zm29.872,2.4v-11.42h-1.581v-2.124h1.581v-2.124h0a3.6,3.6,0,0,1,3.793-3.84h1.754v2.381h-1.227a1.4,1.4,0,0,0-1.526,1.6v1.984h2.765v2.124h-2.765v11.42Zm-45.654-.012a3.529,3.529,0,0,1-3.805-3.812V3521.29h2.8v15.389h-.02c0,1.049.4,1.6,1.527,1.6h1.226v2.366Zm-23.325,0v-12.937l-4.477,9.438h-2.2l-4.591-9.438v12.937H1513.1v-19.356h2.97l5.689,12.045,5.573-12.044h2.952l0,19.355Zm81.654,0a3.6,3.6,0,0,1-3.806-3.84v-7.581H1603.6V3527.1h1.582v-4.179h2.795v4.165h2.681v2.137h-2.681v7.455a1.4,1.4,0,0,0,1.526,1.6h1.155v2.367Z" transform="translate(-1457.999 -3508.04)" fill="#00a1e1"/>
</svg>
