<svg id="_-e-Vector_Smart_Object" data-name="-e-Vector Smart Object" xmlns="http://www.w3.org/2000/svg" xmlns:xlink="http://www.w3.org/1999/xlink" width="122" height="30" viewBox="0 0 122 30">
  <defs>
    <clipPath id="clip-path">
      <rect id="Rectangle_10" data-name="Rectangle 10" width="122" height="30" fill="none"/>
    </clipPath>
  </defs>
  <g id="Group_20" data-name="Group 20">
    <g id="Group_19" data-name="Group 19" clip-path="url(#clip-path)">
      <path id="Path_67" data-name="Path 67" d="M10.645,7.06h8.337c4.476,0,6.161,2.3,5.9,5.684-.429,5.579-3.753,8.664-8.161,8.664H14.5c-.6,0-1.011.405-1.175,1.507l-.955,6.4c-.062.415-.277.659-.6.689H6.539c-.492,0-.667-.382-.538-1.209L9.193,8.274A1.28,1.28,0,0,1,10.645,7.06" fill="#0094cb" fill-rule="evenodd"/>
      <path id="Path_68" data-name="Path 68" d="M46.838,6.681c2.813,0,5.408,1.548,5.053,5.409-.421,4.577-2.851,7.125-6.673,7.136H41.884c-.481,0-.712.4-.838,1.213L40.4,24.6c-.1.629-.414.939-.885.939H36.412c-.5,0-.668-.321-.558-1.039l2.567-16.7c.126-.821.436-1.126.984-1.126ZM41.78,15.619H44.31c1.581-.061,2.633-1.172,2.738-3.177a1.924,1.924,0,0,0-2.071-2.118l-2.381.011Zm18.552,8.645c.283-.261.573-.4.531-.075l-.1.774c-.053.4.106.619.476.619H64c.464,0,.691-.191.805-.92l1.7-10.829c.085-.544-.044-.811-.451-.811H63.019c-.274,0-.406.156-.478.58l-.113.667c-.059.348-.215.408-.361.058-.515-1.237-1.827-1.792-3.668-1.753-4.255.089-7.124,3.367-7.431,7.57a5.176,5.176,0,0,0,5.083,5.8,5.443,5.443,0,0,0,4.282-1.682M58.024,22.6a2.8,2.8,0,0,1-2.842-3.3A3.98,3.98,0,0,1,58.992,16a2.8,2.8,0,0,1,2.842,3.3,3.98,3.98,0,0,1-3.809,3.3m13.881-9.614H69.118c-.578,0-.812.429-.629.975l3.473,10.323-3.422,4.91c-.285.41-.065.785.338.785h3.145a.958.958,0,0,0,.935-.465L83.638,13.961c.329-.479.174-.98-.365-.981l-2.973,0c-.51,0-.715.2-1.008.636l-4.456,6.561L72.854,13.6a.856.856,0,0,0-.949-.615" fill="#003082" fill-rule="evenodd"/>
      <path id="Path_69" data-name="Path 69" d="M94.755,6.681c2.814,0,5.409,1.548,5.053,5.409-.421,4.577-2.851,7.125-6.673,7.136H89.8c-.481,0-.712.4-.838,1.213L88.319,24.6c-.1.629-.414.939-.885.939H84.329c-.5,0-.668-.321-.558-1.039l2.567-16.7c.126-.821.436-1.126.984-1.126ZM89.7,15.619h2.529c1.581-.061,2.633-1.172,2.738-3.177a1.925,1.925,0,0,0-2.071-2.119l-2.381.011Zm18.552,8.645c.284-.261.573-.4.531-.075l-.1.774c-.053.4.106.619.477.619h2.758c.464,0,.691-.191.805-.92l1.7-10.829c.085-.544-.044-.811-.452-.811h-3.033c-.274,0-.406.156-.478.58l-.113.667c-.059.348-.215.408-.361.058-.515-1.237-1.828-1.792-3.668-1.753-4.255.089-7.124,3.367-7.43,7.57a5.176,5.176,0,0,0,5.082,5.8,5.442,5.442,0,0,0,4.282-1.682M105.941,22.6a2.8,2.8,0,0,1-2.842-3.3,3.98,3.98,0,0,1,3.809-3.3,2.8,2.8,0,0,1,2.842,3.3,3.98,3.98,0,0,1-3.809,3.3m12.724,3h-3.184a.379.379,0,0,1-.39-.447l2.8-17.987a.552.552,0,0,1,.53-.447H121.6a.379.379,0,0,1,.39.447l-2.8,17.987a.552.552,0,0,1-.53.447" fill="#0094cb" fill-rule="evenodd"/>
      <path id="Path_70" data-name="Path 70" d="M5.432,0h8.346c2.351,0,5.138.078,7,1.747a5.781,5.781,0,0,1,1.748,4.8c-.512,6.468-4.324,10.091-9.435,10.091H8.979c-.7,0-1.165.471-1.362,1.747L6.467,25.8c-.074.481-.28.765-.655.8H.671c-.57,0-.773-.443-.624-1.4l3.7-23.79A1.484,1.484,0,0,1,5.432,0" fill="#003082" fill-rule="evenodd"/>
      <path id="Path_71" data-name="Path 71" d="M7.736,17.637,9.193,8.274a1.28,1.28,0,0,1,1.451-1.214h8.338a8.038,8.038,0,0,1,3.369.622c-.838,5.757-4.506,8.955-9.31,8.955H8.926c-.542,0-.947.281-1.19,1" fill="#00236d" fill-rule="evenodd"/>
    </g>
  </g>
</svg>
