<svg xmlns="http://www.w3.org/2000/svg" width="83.875" height="34.799" viewBox="0 0 83.875 34.799">
  <path id="_-e-Shape_1874" data-name="-e-Shape 1874" d="M1507.894,3414.635c0-.906.746-1.256,1.981-1.256a13.028,13.028,0,0,1,5.778,1.488v-5.46a15.408,15.408,0,0,0-5.778-1.068c-4.73,0-7.875,2.463-7.875,6.574,0,6.411,8.854,5.39,8.854,8.154,0,1.069-.932,1.417-2.237,1.417a14.532,14.532,0,0,1-6.36-1.859v5.529a16.191,16.191,0,0,0,6.36,1.324c4.847,0,8.178-2.393,8.178-6.551C1516.771,3416.006,1507.894,3417.237,1507.894,3414.635Zm15.75-10.942-5.685,1.208-.024,18.607a5.846,5.846,0,0,0,6.035,5.971,9.01,9.01,0,0,0,4.077-.767V3424c-.745.3-4.427,1.371-4.427-2.068v-8.246h4.427v-4.948h-4.427Zm11.65,6.76-.373-1.719h-5.033v20.327h5.825v-13.776a4.117,4.117,0,0,1,4.427-1.208v-5.343A3.96,3.96,0,0,0,1535.293,3410.454Zm6.268-1.719h5.848v20.327h-5.848Zm0-1.766,5.848-1.255V3401l-5.848,1.23Zm18.009,1.371a6.594,6.594,0,0,0-4.567,1.811l-.3-1.44h-5.126V3435.8l5.825-1.231.023-6.574a6.575,6.575,0,0,0,4.124,1.464c4.17,0,7.968-3.345,7.968-10.709C1567.492,3412.01,1563.647,3408.34,1559.57,3408.34Zm-1.4,16.006a3.489,3.489,0,0,1-2.749-1.092l-.023-8.618a3.47,3.47,0,0,1,2.773-1.139c2.12,0,3.588,2.369,3.588,5.413C1561.76,3422.023,1560.316,3424.345,1558.173,3424.345Zm27.7-5.366c0-5.947-2.889-10.639-8.411-10.639-5.545,0-8.9,4.692-8.9,10.593,0,6.993,3.961,10.524,9.646,10.524a13.018,13.018,0,0,0,6.454-1.51V3423.3a12.4,12.4,0,0,1-5.708,1.278c-2.26,0-4.264-.79-4.519-3.531h11.392C1585.828,3420.745,1585.874,3419.537,1585.874,3418.979Zm-11.509-2.207c0-2.625,1.608-3.717,3.076-3.717,1.421,0,2.936,1.092,2.936,3.717Z" transform="translate(-1501.999 -3400.999)" fill="#32325d"/>
</svg>
