<svg xmlns="http://www.w3.org/2000/svg" width="105.233" height="31.548" viewBox="0 0 105.233 31.548">
  <path id="_-e-Shape_1874" data-name="-e-Shape 1874" d="M1320.814,3433.93a15.78,15.78,0,1,1,.086,0Zm-11.646-15.774a11.67,11.67,0,1,0,11.646-11.61A11.676,11.676,0,0,0,1309.168,3418.156Zm84.956,2.406v-.047c0-4.024,3.34-7.492,8.073-7.492s8.073,3.423,8.027,7.447v.046c0,4.025-3.34,7.494-8.073,7.494C1397.464,3428.009,1394.124,3424.586,1394.124,3420.562Zm5.707-.093v.046a2.447,2.447,0,0,0,2.366,2.545,2.4,2.4,0,0,0,2.32-2.5v-.047a2.447,2.447,0,0,0-2.366-2.543A2.4,2.4,0,0,0,1399.831,3420.469Zm-57.72,2.406v-4.9h-1.392a.3.3,0,0,1-.279-.277v-4.026a.3.3,0,0,1,.279-.277h1.392v-2.868c0-.138.139-.231.278-.276l5.336-1.62a.272.272,0,0,1,.371.232v4.532h8.4a.406.406,0,0,1,.372.277l1.3,5.181.093.278.094-.278,1.577-5.273a.463.463,0,0,1,.372-.277h4.176a.405.405,0,0,1,.371.277l1.624,5.644.093-.278,1.392-5.274a.462.462,0,0,1,.371-.277h10.765a.338.338,0,0,1,.325.277V3427.5a.3.3,0,0,1-.278.278h-5.382a.3.3,0,0,1-.28-.278v-13.275l-4.036,13.275a.461.461,0,0,1-.372.278h-4.407a.461.461,0,0,1-.372-.278l-1.856-5.827-1.9,5.874a.46.46,0,0,1-.371.277h-4.407a.4.4,0,0,1-.372-.277l-3.991-13.229v3.377a.3.3,0,0,1-.278.277H1348.1v3.608c0,1.11.51,1.48,1.438,1.48a3.8,3.8,0,0,0,1.531-.324c.094-.047.279,0,.279.231v4.164a8.418,8.418,0,0,1-3.805.832C1344.013,3427.962,1342.112,3426.344,1342.112,3422.875Zm45.8,4.9a.3.3,0,0,1-.279-.278v-13.831a.3.3,0,0,1,.279-.277h5.382a.267.267,0,0,1,.278.277V3427.5a.3.3,0,0,1-.278.278Zm-7.1,0a.3.3,0,0,1-.278-.278v-18.641a.3.3,0,0,1,.278-.278h5.382a.268.268,0,0,1,.279.278V3427.5a.3.3,0,0,1-.279.278Zm-59.337-5.688a3.29,3.29,0,1,1,3.29,3.281A3.285,3.285,0,0,1,1321.47,3422.09Zm-7.89,0a3.29,3.29,0,1,1,3.29,3.281A3.285,3.285,0,0,1,1313.58,3422.09Zm7.89-7.87a3.29,3.29,0,1,1,3.29,3.28A3.286,3.286,0,0,1,1321.47,3414.22Zm-7.89,0a3.29,3.29,0,1,1,3.29,3.28A3.286,3.286,0,0,1,1313.58,3414.22Zm74.188-1.846a.3.3,0,0,1-.278-.278v-3.237a.3.3,0,0,1,.278-.278h5.614a.246.246,0,0,1,.278.278v3.237a.3.3,0,0,1-.278.278Zm-14.2,0a.3.3,0,0,1-.278-.278v-3.237a.3.3,0,0,1,.278-.278h5.615a.245.245,0,0,1,.277.278v3.237a.3.3,0,0,1-.277.278Z" transform="translate(-1304.992 -3402.383)" fill="#fe5470"/>
</svg>
