<svg xmlns="http://www.w3.org/2000/svg" width="3709.194" height="1646.982" viewBox="0 0 3709.194 1646.982">
  <g id="Group_76" data-name="Group 76" transform="translate(132.093 -2308.011)">
    <path id="_-e-Shape_1" data-name="-e-Shape 1" d="M-131,2988.191c49.755-146.239,182.979-263.066,335.685-286.684,69.885-10.808,144.965-4.958,207.1-38.714,70.762-38.443,106.655-118.079,159.585-178.758,110.087-126.206,309.286-164.036,458-86.98S1262,2658.627,1222.3,2821.3c-23.275,95.363-83.715,182.253-85.155,280.4-1.137,77.488,34.818,149.865,61.381,222.671s43.331,157.224,6.2,225.257c-44.85,82.187-149.2,108.422-242.309,118.517s-195.064,15.594-264.517,78.4c-43.573,39.4-67.279,95.791-103.367,142.143S490.618,3968,435.492,3947.671Z" fill="#edfafe" stroke="#b5e4f4" stroke-width="2"/>
    <path id="_-e-Shape_3" data-name="-e-Shape 3" d="M2774.846,3392.37c-109.915-50.553-190.2-163.742-196.317-284.583-2.8-55.3,7.8-113.305-13.5-164.422-24.254-58.215-83.4-92.6-126.412-138.718-89.456-95.926-102.9-254.124-30.913-363.735s222.474-160.072,346-116.022c72.414,25.823,135.238,79.908,211.579,88.95,60.271,7.139,119.543-15.024,178.4-29.837s125.96-21.061,175.97,13.345c60.413,41.563,72.457,124.955,72.83,198.286s-3.544,153.183,39.792,212.345c27.189,37.117,69.207,60.131,102.411,91.978s53.421,87.335,33.151,128.628Z" fill="#edfafe" stroke="#b5e4f4" stroke-width="2"/>
  </g>
</svg>
