<svg xmlns="http://www.w3.org/2000/svg" xmlns:xlink="http://www.w3.org/1999/xlink" width="364" height="252" viewBox="0 0 364 252">
  <defs>
    <clipPath id="clip-path">
      <rect id="Rectangle_5" data-name="Rectangle 5" width="112" height="104" fill="none"/>
    </clipPath>
    <clipPath id="clip-path-2">
      <rect id="Rectangle_6" data-name="Rectangle 6" width="86" height="81" fill="none"/>
    </clipPath>
  </defs>
  <g id="Group_78" data-name="Group 78" transform="translate(-1645 -2849)">
    <g id="_-e-Vector_Smart_Object" data-name="-e-Vector Smart Object" transform="translate(1616 2849)">
      <path id="Rectangle_1045" data-name="Rectangle 1045" d="M15,0H349a15,15,0,0,1,15,15V134a15,15,0,0,1-15,15H15A15,15,0,0,1,0,134V15A15,15,0,0,1,15,0Z" transform="translate(29 103)" fill="#077997"/>
      <g id="Rectangle_1045_copy" data-name="Rectangle 1045 copy" transform="translate(29 94)" fill="#fff" stroke="#1e89a7" stroke-linejoin="round" stroke-width="3">
        <rect width="364" height="149" rx="15" stroke="none"/>
        <rect x="1.5" y="1.5" width="361" height="146" rx="13.5" fill="none"/>
      </g>
      <g id="Vector_Smart_Object" data-name="Vector Smart Object" transform="translate(211)">
        <g id="Group_10" data-name="Group 10">
          <g id="Group_9" data-name="Group 9" clip-path="url(#clip-path)">
            <path id="Path_40" data-name="Path 40" d="M21.435,95.156a7.677,7.677,0,1,1-7.677-7.713,7.7,7.7,0,0,1,7.677,7.713" fill="#fff"/>
            <path id="Path_41" data-name="Path 41" d="M109.57,95.156a7.677,7.677,0,1,1-7.677-7.713,7.7,7.7,0,0,1,7.677,7.713" fill="#fff"/>
            <path id="Path_42" data-name="Path 42" d="M36.448,54.87c-1.932,6.988-8.376,11.292-14.393,9.613s-9.329-8.705-7.4-15.693S23.034,37.5,29.051,39.177s9.329,8.7,7.4,15.693" fill="#95e8f7"/>
            <path id="Path_43" data-name="Path 43" d="M112,93.965a7.307,7.307,0,0,0-.159-.909c-.029-.14-.067-.275-.111-.43l-.038-.116a7.325,7.325,0,0,0-.828-1.774c-.029-.053-.063-.1-.1-.159-.067-.1-.145-.2-.217-.295l-.058-.078c-.062-.087-.13-.169-.2-.251-.115-.14-.236-.275-.385-.435l-.038-.039a11.007,11.007,0,0,0-7.963-3.166,12.148,12.148,0,0,0-3.58.531,82.2,82.2,0,0,1,1.323-12.65c0-.015,0-.024,0-.039a45.7,45.7,0,0,0,8.4-17.194c2.415-8.937-.207-25.484-9.83-38.53C92.263,10.344,81.273.59,62.758.029,39.2-.691,26.9,12.186,20.714,23.27c0,0-.009.01-.009.015C12.082,35.427-1.294,55.947.1,64.706,1.669,74.581,6,77,8.2,77.588a28.156,28.156,0,0,0,1.781,3.581A33.441,33.441,0,0,1,12.5,86.443c-4.34.628-7.747,3.514-8.243,7.2-.019.106-.038.212-.053.319l.106,2.9a7.484,7.484,0,0,0,5.654,5.66,7.378,7.378,0,0,0,4.2,1.469c.072.005.149.005.221.005a7.27,7.27,0,0,0,2.843-.575,7.37,7.37,0,0,0,2.185-1.412,7.572,7.572,0,0,0,4.759-5.148H91.926a7.484,7.484,0,0,0,5.654,5.66,7.354,7.354,0,0,0,9.445-.513,7.592,7.592,0,0,0,4.759-5.148M6.9,73.575c-1.429-1.31-3.1-3.963-3.955-9.324-.856-5.4,5.552-17.445,12.693-28.742-.236.836-.409,1.532-.529,2.06A27.964,27.964,0,0,1,13.4,41.387c-3.305,6.7-9.589,19.456-6.5,32.188M21.1,96.865a4.617,4.617,0,0,1-2.853,2.48l-.366.106-.265.271-.087.087a4.485,4.485,0,0,1-3.036,1.291h-.111A4.444,4.444,0,0,1,11.5,100.05l-.3-.247-.385-.062a4.568,4.568,0,0,1-3.493-2.876A4.745,4.745,0,0,1,7,95.125a4.884,4.884,0,0,1,.1-.957l.019-.106c0-.034.009-.063.014-.1.371-2.45,3.032-4.4,6.279-4.708.293-.029.587-.044.89-.044a9.064,9.064,0,0,1,2.184.261,7.494,7.494,0,0,1,3.7,2.015l.043.044c.082.087.163.174.241.271.039.049.077.1.139.184l.039.049c.043.058.087.111.135.188l.057.092a4.561,4.561,0,0,1,.5,1.068l.024.068c.024.082.043.164.062.265.019.082.039.165.053.247a4.674,4.674,0,0,1,.087.875,4.729,4.729,0,0,1-.457,2.025m70.769-3.219c-.019.106-.039.212-.053.319H24.39a7.391,7.391,0,0,0-.159-.909c-.034-.14-.067-.275-.111-.43l-.039-.116a7.47,7.47,0,0,0-.828-1.774c-.033-.053-.063-.1-.1-.159-.067-.1-.139-.2-.212-.295l-.057-.078c-.067-.087-.13-.169-.2-.251-.115-.14-.241-.275-.39-.435l-.039-.039a10.7,10.7,0,0,0-6.688-3.1,36.974,36.974,0,0,0-3.1-6.69A24.919,24.919,0,0,1,10.9,76.539c-.183-.445-.351-.894-.505-1.344-4.3-12.452,2.257-25.75,5.591-32.522a25.692,25.692,0,0,0,1.939-4.457c1.4-6.076,10.114-36.345,44.743-35.287,17.356.527,27.652,9.658,33.234,17.228,8.752,11.867,11.635,27.65,9.358,36.046C101.347,70.69,92.58,80.15,84.877,78.216c-3.373-.846-5.682-2.5-7.054-5.061-2.6-4.853-1.886-13.143,2.132-24.633,7.607-21.757-.212-29.274-.549-29.583a1.43,1.43,0,0,0-2.021.082,1.467,1.467,0,0,0,.058,2.044c.067.063,6.683,6.763-.212,26.5-4.359,12.462-4.994,21.284-1.948,26.963a13.154,13.154,0,0,0,8.892,6.5c4.046,1.015,8.209-.271,11.991-3.369a0,0,0,0,0,0,0,79.955,79.955,0,0,0-.756,10.576,7.9,7.9,0,0,0-3.546,5.414m16.845,3.219a4.614,4.614,0,0,1-2.858,2.48l-.366.106-.265.271a4.47,4.47,0,0,1-3.233,1.378,4.36,4.36,0,0,1-2.108-.532,4.211,4.211,0,0,1-.77-.517l-.3-.247-.38-.062a4.548,4.548,0,0,1-3.489-2.876,4.653,4.653,0,0,1-.332-1.74,4.55,4.55,0,0,1,.1-.957l.014-.106c.005-.034.01-.063.015-.1a4.291,4.291,0,0,1,.8-1.89,6.633,6.633,0,0,1,2.8-2.146,9.132,9.132,0,0,1,3.575-.716,8.209,8.209,0,0,1,5.88,2.277l.043.044c.081.087.163.174.24.271.043.049.082.1.145.184l.033.049c.043.058.087.111.135.188l.058.092a4.379,4.379,0,0,1,.5,1.068l.024.068c.024.082.043.164.067.265.019.082.039.165.053.247a4.635,4.635,0,0,1,.087.875,4.729,4.729,0,0,1-.457,2.025" fill="#1e8aa7"/>
            <path id="Path_44" data-name="Path 44" d="M53.952,52.958a2.336,2.336,0,1,0,2.326,2.336,2.331,2.331,0,0,0-2.326-2.336" fill="#1e8aa7"/>
            <path id="Path_45" data-name="Path 45" d="M26.285,52.958a2.336,2.336,0,1,0,2.326,2.336,2.331,2.331,0,0,0-2.326-2.336" fill="#1e8aa7"/>
            <path id="Path_46" data-name="Path 46" d="M46.288,67.9a1.451,1.451,0,0,0-1.443,1.45,2.3,2.3,0,0,1-1.809,2.243,2.226,2.226,0,0,1-.476.053,2.3,2.3,0,0,1-2.286-2.3V64.663h.6a1.474,1.474,0,0,0,1.468-1.475,1.473,1.473,0,0,0-1.468-1.469h-4.09a1.457,1.457,0,0,0-1.034.43,1.475,1.475,0,0,0,1.034,2.514h.6v4.689a2.293,2.293,0,0,1-2.286,2.3,2.182,2.182,0,0,1-.472-.053,2.294,2.294,0,0,1-1.814-2.243,1.444,1.444,0,1,0-2.887,0A5.19,5.19,0,0,0,34.461,74.5a4.716,4.716,0,0,0,4.369,4.152A4.716,4.716,0,0,0,43.2,74.5a5.189,5.189,0,0,0,4.528-5.153,1.448,1.448,0,0,0-1.444-1.45M38.83,76.723a2.736,2.736,0,0,1-2.43-2.34v0a4.986,4.986,0,0,0,1.491-.657v.909a.962.962,0,1,0,1.925,0v-.875a5.1,5.1,0,0,0,1.448.628,2.736,2.736,0,0,1-2.434,2.34" fill="#1e8aa7"/>
            <path id="Path_47" data-name="Path 47" d="M55.841,42.671c-2.229-.666-4.235-.532-4.481.3s1.36,2.046,3.589,2.713,4.235.532,4.481-.3-1.36-2.046-3.589-2.712" fill="#1e8aa7"/>
            <path id="Path_48" data-name="Path 48" d="M30.244,42.735c-.294-.816-2.3-.832-4.491-.036s-3.72,2.1-3.426,2.918,2.3.832,4.491.036,3.72-2.1,3.426-2.918" fill="#1e8aa7"/>
            <path id="Path_49" data-name="Path 49" d="M44.262,14.719c.732-1.668,3.893-2.011,6.765-.735a8.923,8.923,0,0,1,2.574,1.7,1.439,1.439,0,0,0,2.04-.039,1.461,1.461,0,0,0-.038-2.054A11.954,11.954,0,0,0,52.2,11.331c-4.508-2-9.152-1.025-10.576,2.214a4.916,4.916,0,0,0-.337,2.828c-2.8,1.044-4.663,3.142-4.663,5.607a4.985,4.985,0,0,0,.958,2.915,7.209,7.209,0,0,0,2.507,2.151A11.173,11.173,0,0,0,45.4,28.307c.163,0,.332,0,.5-.009a1.454,1.454,0,0,0,1.386-1.508,1.438,1.438,0,0,0-1.5-1.392c-.13,0-.255.009-.385.009a8.639,8.639,0,0,1-3.628-.773,3.837,3.837,0,0,1-2.18-2.1,1.829,1.829,0,0,1-.087-.556c0-1.194,1.179-2.291,2.877-2.9a8.847,8.847,0,0,1,3.017-.522c.115,0,.226,0,.342.01a8.713,8.713,0,0,1,2.694.5,1.45,1.45,0,0,0,.991-2.726,11.9,11.9,0,0,0-4.027-.686,12.5,12.5,0,0,0-1.29.068,2.148,2.148,0,0,1,.005-.464,1.765,1.765,0,0,1,.144-.541" fill="#1e8aa7"/>
          </g>
        </g>
      </g>
    </g>
    <g id="_-e-Vector_Smart_Object-2" data-name="-e-Vector Smart Object" transform="translate(1682 2985)">
      <g id="Group_12" data-name="Group 12">
        <g id="Group_11" data-name="Group 11" clip-path="url(#clip-path-2)">
          <path id="Path_50" data-name="Path 50" d="M48.212,81q-7.514,0-15.028-.013c-1.432,0-2.129-.73-2.132-2.225l0-.839c0-2.36-.009-4.8.011-7.2a2.011,2.011,0,0,0-.789-1.686c-3.485-2.9-6.9-5.789-10.393-8.734a6.522,6.522,0,0,1-2.091-7.86,7.3,7.3,0,0,1,6.649-4.234,6.964,6.964,0,0,1,.867.054,7.918,7.918,0,0,1,4.525,2.128l1.141,1.041V34.686l-9.011,0q-2.246,0-4.492-.005A17.247,17.247,0,0,1,.142,19.492a2.294,2.294,0,0,0-.13-.471L0,18.988V15.654a1.513,1.513,0,0,0,.14-.435A17.886,17.886,0,0,1,5.815,4.351a16.982,16.982,0,0,1,11.3-4.3C25.232.016,33.732,0,42.378,0c8.43,0,17.345.015,26.5.045a17.062,17.062,0,0,1,16.548,12.9c.167.627.285,1.262.41,1.933.054.289.108.579.166.867v3.284c-.058.279-.112.56-.166.84-.121.625-.246,1.271-.409,1.883A17.2,17.2,0,0,1,68.7,34.68q-4.249.015-8.5.013-3.319,0-6.638,0t-6.638,0H45.106v6.8l4.328.556c1.056.135,2.113.262,3.17.39,2.34.281,4.76.573,7.118.951a6.889,6.889,0,0,1,5.791,6.969c.015,4.679.012,9.437.009,14.039q0,2.951,0,5.9v2.487q0,2.992,0,5.985c0,1.5-.7,2.225-2.136,2.228Q55.8,81,48.212,81M34.831,77.161H61.708V70.8H34.831ZM24.481,51.968a3.624,3.624,0,0,0-2.9,1.393c-1.6,2.121.384,3.792,1.035,4.341l1.787,1.506c2.753,2.321,5.6,4.721,8.425,7.054a3.132,3.132,0,0,0,1.868.677c5.646.021,11.2.024,16.356.024h10.58l.071-.606c.009-.077.018-.139.025-.193a2.389,2.389,0,0,0,.03-.339l0-3.642c0-3.882.006-7.9-.008-11.846a3.234,3.234,0,0,0-2.977-3.327c-5.114-.642-10.264-1.284-15.307-1.906-1.651-.2-2.182-.807-2.183-2.484q0-3.711,0-7.421V31.754q0-1.325,0-2.65c0-2.077.005-4.224-.007-6.337a3.253,3.253,0,0,0-3.219-3.4,3.454,3.454,0,0,0-.781.091,3.272,3.272,0,0,0-2.478,3.421q0,9.11,0,18.22v8.407q0,2.9,0,5.8a1.8,1.8,0,0,1-1.11,1.835,1.972,1.972,0,0,1-.8.183,2.047,2.047,0,0,1-1.334-.566l-.844-.72c-1.282-1.095-2.608-2.227-3.959-3.292a3.693,3.693,0,0,0-2.278-.779M35.336,3.788q-8.963,0-17.924.007a13.562,13.562,0,1,0-.131,27.123q2.343.012,4.687.011,2.176,0,4.351,0l3.248,0c.191,0,.372-.015.564-.03l.28-.021.639-.041V29.207c0-.72,0-1.441-.006-2.162-.008-1.56-.016-3.173.025-4.752a6.967,6.967,0,0,1,6.956-6.7,6.676,6.676,0,0,1,1.516.175,6.984,6.984,0,0,1,5.491,6.782c.025,1.74.019,3.444.013,5.249q0,1.2-.006,2.408v.651l.647.034.243.014c.142.009.245.015.347.015h7.745c4.808,0,9.956,0,15.031-.016a11.517,11.517,0,0,0,2.424-.277A13.563,13.563,0,0,0,68.593,3.792q-1.559-.005-3.117,0l-5.159,0-24.981,0" fill="#077997"/>
          <path id="Path_51" data-name="Path 51" d="M58.35,24.328a2.213,2.213,0,0,1-1.528-.757c-1.5-1.494-3.084-3.08-4.7-4.714a2.375,2.375,0,0,1-.769-1.638,1.753,1.753,0,0,1,.56-1.249,1.728,1.728,0,0,1,1.224-.529,2.445,2.445,0,0,1,1.673.8c.691.689,1.379,1.382,2.086,2.094l1.452,1.461,1.57-1.584c.826-.833,1.634-1.648,2.443-2.462l.819-.824q1.939-1.949,3.885-3.891a2.288,2.288,0,0,1,1.585-.728,1.741,1.741,0,0,1,1.248.535,1.783,1.783,0,0,1,.561,1.267,2.273,2.273,0,0,1-.732,1.566c-3.662,3.688-6.9,6.933-9.889,9.92a2.144,2.144,0,0,1-1.489.734" fill="#85d3e0"/>
        </g>
      </g>
    </g>
    <g id="_-e-Ellipse_7" data-name="-e-Ellipse 7" transform="translate(1682.25 2916.25)" fill="#edfafe" stroke="#b5e4f4" stroke-linejoin="round" stroke-width="2">
      <circle cx="28.75" cy="28.75" r="28.75" stroke="none"/>
      <circle cx="28.75" cy="28.75" r="27.75" fill="none"/>
    </g>
    <text id="_2" data-name="2" transform="translate(1711 2953.373)" fill="#077997" font-size="22" font-family="MuseoSansRounded-900, 'Museo Sans Rounded \39 00'" font-weight="900"><tspan x="-6" y="0">2</tspan></text>
  </g>
</svg>
