<svg xmlns="http://www.w3.org/2000/svg" xmlns:xlink="http://www.w3.org/1999/xlink" width="364" height="256" viewBox="0 0 364 256">
  <defs>
    <clipPath id="clip-path">
      <rect id="Rectangle_7" data-name="Rectangle 7" width="119" height="109" fill="none"/>
    </clipPath>
    <clipPath id="clip-path-2">
      <rect id="Rectangle_8" data-name="Rectangle 8" width="81" height="68" fill="none"/>
    </clipPath>
  </defs>
  <g id="Group_77" data-name="Group 77" transform="translate(-2034 -2845)">
    <g id="_-e-Vector_Smart_Object" data-name="-e-Vector Smart Object" transform="translate(2005 2845)">
      <rect id="Rectangle_1045" data-name="Rectangle 1045" width="364" height="149" rx="15" transform="translate(29 107)" fill="#077997"/>
      <g id="Rectangle_1045_copy" data-name="Rectangle 1045 copy" transform="translate(29 98)" fill="#fff" stroke="#1e89a7" stroke-linejoin="round" stroke-width="3">
        <rect width="364" height="149" rx="15" stroke="none"/>
        <rect x="1.5" y="1.5" width="361" height="146" rx="13.5" fill="none"/>
      </g>
      <g id="Vector_Smart_Object" data-name="Vector Smart Object" transform="translate(214)">
        <g id="Group_14" data-name="Group 14">
          <g id="Group_13" data-name="Group 13" clip-path="url(#clip-path)">
            <path id="Path_52" data-name="Path 52" d="M23.73,100a7.661,7.661,0,1,1-7.661-7.631A7.646,7.646,0,0,1,23.73,100" fill="#fff"/>
            <path id="Path_53" data-name="Path 53" d="M117.039,100a7.661,7.661,0,1,1-7.661-7.631A7.646,7.646,0,0,1,117.039,100" fill="#fff"/>
            <path id="Path_54" data-name="Path 54" d="M52.388,32.5A10.643,10.643,0,1,0,63.031,21.9,10.622,10.622,0,0,0,52.388,32.5" fill="#95e8f7"/>
            <path id="Path_55" data-name="Path 55" d="M118.928,98.34c-.01-.057-.019-.11-.034-.167a4.222,4.222,0,0,0-.11-.421l-.039-.12a7.287,7.287,0,0,0-.825-1.755c-.029-.052-.063-.1-.1-.158-.067-.1-.139-.192-.216-.292l-.058-.072c-.063-.086-.13-.172-.2-.253-.115-.139-.235-.272-.384-.43l-.038-.038a10.719,10.719,0,0,0-6.665-3.065,228.944,228.944,0,0,0,1.945-36.014c-.106-2.8-.283-5.581-.552-8.317C110.372,34.272,107,22.439,99.8,15.973a20.365,20.365,0,0,0-4.557-3.094C68.3-.3,46.824,10.387,38.844,15.6c-5.119,3.338-10.707,6.318-17.324,6.586a23.164,23.164,0,0,1-3.035-.072,25.518,25.518,0,0,1-3.274-.5c-3.471-.76-6.962,1-9.843,4.945a27.244,27.244,0,0,0-4.062,8.786c-.259.952-.485,1.927-.667,2.932A36.934,36.934,0,0,0,4.778,63.436c1.9,3.223,3.788,6.165,5.455,8.762,4.94,7.69,8.489,13.224,8.748,19.623a12.448,12.448,0,0,0-2.824-.32c-4.988,0-9.17,2.908-9.953,6.839l-.144,2.87a7.438,7.438,0,0,0,5.771,6.332A7.426,7.426,0,0,0,16.239,109a7.33,7.33,0,0,0,5.017-1.966,7.528,7.528,0,0,0,4.917-5.825H98.886a7.443,7.443,0,0,0,5.776,6.332,7.388,7.388,0,0,0,9.425-.507A7.532,7.532,0,0,0,119,101.209m-95.78,0a4.612,4.612,0,0,1-3.126,3.185l-.365.105-.264.268a4.812,4.812,0,0,1-1.066.813,4.493,4.493,0,0,1-2.161.55,4.259,4.259,0,0,1-.744-.062,4.5,4.5,0,0,1-2.127-.971l-.3-.249-.379-.062a4.562,4.562,0,0,1-3.707-3.577,4.5,4.5,0,0,1-.106-.99,4.825,4.825,0,0,1,.091-.947l.019-.105a4.1,4.1,0,0,1,.2-.827c.807-2.281,3.678-3.97,6.967-3.97a9.242,9.242,0,0,1,2.718.4A7.594,7.594,0,0,1,21.568,96.2c.163.139.312.278.456.426l.043.043c.081.091.163.177.24.268.039.048.077.1.139.182l.039.048a2.282,2.282,0,0,1,.134.186l.058.1a4.051,4.051,0,0,1,.437.894,1.088,1.088,0,0,1,.058.158l.024.067c.024.081.043.163.067.263a4.816,4.816,0,0,1,.139,1.114,4.475,4.475,0,0,1-.182,1.267m75.811-2.87H26.1c-.01-.057-.019-.11-.034-.167-.033-.134-.067-.272-.11-.421l-.039-.12a7.287,7.287,0,0,0-.825-1.755c-.029-.052-.063-.1-.1-.158-.067-.1-.139-.192-.211-.292l-.058-.072c-.067-.086-.13-.172-.2-.253-.115-.139-.24-.272-.389-.43l-.034-.038a9.252,9.252,0,0,0-2.242-1.7c.12-7.757-3.947-14.094-9.2-22.277-1.733-2.7-3.524-5.491-5.4-8.671a33.938,33.938,0,0,1-3.937-22.6,14.635,14.635,0,0,0,4.192.612A14.365,14.365,0,0,0,21.986,25.763c0-.249,0-.493-.019-.737,7.207-.4,13.281-3.654,18.452-7.03,7.572-4.941,27.94-15.075,53.556-2.544a16.194,16.194,0,0,1,1.9,1.1C87.329,29.135,72.363,54.727,81.15,68.5c3.745,5.873,7.855,7.466,11.216,7.466a11.265,11.265,0,0,0,2.516-.292c5.445-1.253,10.621-6.4,14.5-13.75a250.2,250.2,0,0,1-2.065,29.691c-4.23.564-7.586,3.242-8.283,6.724m17.016,2.87a4.6,4.6,0,0,1-3.126,3.185l-.36.105-.264.268a4.51,4.51,0,0,1-5.123.947,4.575,4.575,0,0,1-.98-.617l-.3-.249-.379-.062c-.01,0-.019,0-.029,0a4.559,4.559,0,0,1-3.678-3.573,4.5,4.5,0,0,1-.106-.99,4.435,4.435,0,0,1,.1-.947l.014-.105a4.105,4.105,0,0,1,.2-.827,6.534,6.534,0,0,1,4.9-3.74,9.451,9.451,0,0,1,2.07-.229c.3,0,.6.015.9.043a7.973,7.973,0,0,1,4.96,2.21l.043.043c.082.091.164.177.24.268.043.048.082.1.144.182l.038.048c.039.057.082.11.13.186l.058.1a4.051,4.051,0,0,1,.437.894A1.087,1.087,0,0,1,116,98.5l.024.067c.024.081.043.163.067.263a4.816,4.816,0,0,1,.139,1.114,4.474,4.474,0,0,1-.182,1.267" fill="#1e8aa7"/>
            <path id="Path_56" data-name="Path 56" d="M60.817,27.836a2.312,2.312,0,1,0,2.321,2.312,2.316,2.316,0,0,0-2.321-2.312" fill="#1e8aa7"/>
            <path id="Path_57" data-name="Path 57" d="M46.713,23.651a2.312,2.312,0,1,0,2.321,2.312,2.316,2.316,0,0,0-2.321-2.312" fill="#1e8aa7"/>
            <path id="Path_58" data-name="Path 58" d="M77.977,4.894c2.224.659,4.226.527,4.472-.3s-1.358-2.025-3.581-2.684-4.226-.527-4.472.3,1.358,2.024,3.581,2.683" fill="#1e8aa7"/>
            <path id="Path_59" data-name="Path 59" d="M59.889,3.384c2.229-.64,3.844-1.827,3.6-2.652S61.255-.243,59.025.4s-3.843,1.827-3.605,2.652,2.239.975,4.469.336" fill="#1e8aa7"/>
            <path id="Path_60" data-name="Path 60" d="M45.4,48.016a1.444,1.444,0,0,0-1.913.7A11.236,11.236,0,0,1,30.318,55.1a1.435,1.435,0,1,0-.7,2.784,15,15,0,0,0,3.643.456A14.06,14.06,0,0,0,46.1,49.922a1.433,1.433,0,0,0-.7-1.906" fill="#1e8aa7"/>
          </g>
        </g>
      </g>
    </g>
    <g id="_-e-Vector_Smart_Object-2" data-name="-e-Vector Smart Object" transform="translate(2056 2992)">
      <g id="Group_16" data-name="Group 16">
        <g id="Group_15" data-name="Group 15" clip-path="url(#clip-path-2)">
          <path id="Path_61" data-name="Path 61" d="M78.248,68c-6.759-.021-13.321-.023-18.849-.023l-17.224,0c-1.411,0-2.307-.742-2.338-1.937a1.976,1.976,0,0,1,.53-1.467,2.1,2.1,0,0,1,1.543-.6q2.2-.011,4.4-.01l7.359,0,.027-.615c.006-.133.013-.258.019-.378.014-.251.027-.488.027-.73l0-14.3q0-8.493,0-16.985a7.591,7.591,0,0,1,.052-1.1A1.916,1.916,0,0,1,55.77,28.2h.022a1.944,1.944,0,0,1,1.94,1.716,8.488,8.488,0,0,1,.038,1v.041q0,13.834,0,27.669v5.306H72.493v-7.1q0-18.349.005-36.7a4.361,4.361,0,0,1,.1-1.1A1.9,1.9,0,0,1,74.524,17.6a2.556,2.556,0,0,1,.267.014A1.972,1.972,0,0,1,76.505,19.5c.01.2.009.407.007.624V64.043l.694-.054c.33-.026.718-.051,1.1-.051,1.473,0,2.24.415,2.7,1.472v1.032C80.536,67.547,79.736,68,78.269,68Z" fill="#077997"/>
          <path id="Path_62" data-name="Path 62" d="M21.176,67.98a21.231,21.231,0,0,1,.012-42.461h.143A21.231,21.231,0,0,1,21.3,67.98Zm.07-38.449a17.219,17.219,0,0,0-.037,34.438h.073a17.244,17.244,0,0,0,17.2-17.2,17.255,17.255,0,0,0-17.228-17.24Z" fill="#85d3e0"/>
          <path id="Path_63" data-name="Path 63" d="M38.294,28.042a1.945,1.945,0,0,1-1.9-1.552,1.821,1.821,0,0,1,.508-1.828c4.229-4.247,7.79-7.811,11.418-11.4a1.936,1.936,0,0,1,1.366-.606,2.118,2.118,0,0,1,1.474.663c.96.937,1.906,1.9,2.82,2.837q.589.6,1.167,1.189l.455.461L69.3,4.135l-1.746-.083c-.233-.01-.494-.022-.754-.037a1.945,1.945,0,0,1-1.9-1.774A1.948,1.948,0,0,1,66.517.068a3,3,0,0,1,.59-.059l1.5,0q1.259,0,2.518,0c1.136,0,2.077,0,2.962.014,1.714.018,2.415.72,2.42,2.422.008,2.5.008,4.784,0,6.975a2.046,2.046,0,0,1-1.993,2.253,2.1,2.1,0,0,1-2.023-2.291c0-.152,0-.3,0-.506v-1.9L71.4,8l-.326.309c-.179.169-.318.3-.453.435L57.557,21.789a2.7,2.7,0,0,1-1.793.978,2.693,2.693,0,0,1-1.792-.978c-.851-.85-1.7-1.7-2.562-2.569l-1.662-1.669-.456.435-.232.219c-.158.149-.3.285-.444.426q-1.364,1.36-2.725,2.724c-1.971,1.972-4.009,4.012-6.027,6a2.248,2.248,0,0,1-1.57.684" fill="#077997"/>
          <path id="Path_64" data-name="Path 64" d="M21.206,60.332c-.649-.01-1.558-.217-1.971-1.892a1.817,1.817,0,0,0-.93-1.026,6.353,6.353,0,0,1-3.686-5.737,1.948,1.948,0,0,1,1.873-2.123l.106,0a2.009,2.009,0,0,1,2.03,2.008,2.579,2.579,0,0,0,2.587,2.49,3.279,3.279,0,0,0,.708-.08,2.451,2.451,0,0,0,1.942-2.175,2.355,2.355,0,0,0-1.517-2.517c-1-.391-2.021-.735-3.013-1.067l-.04-.014a6.193,6.193,0,0,1-4.64-5.688,6.2,6.2,0,0,1,3.793-6.5,1.636,1.636,0,0,0,.806-1.07,1.992,1.992,0,0,1,1.9-1.772h.086a1.875,1.875,0,0,1,1.947,1.625,1.843,1.843,0,0,0,1.082,1.357,6.368,6.368,0,0,1,3.649,5.559,2.079,2.079,0,0,1-1.905,2.238l-.1,0a1.98,1.98,0,0,1-2-1.86A2.612,2.612,0,0,0,21.3,39.454a3.527,3.527,0,0,0-.514.039,2.446,2.446,0,0,0-2.134,2.119,2.349,2.349,0,0,0,1.507,2.611c.677.263,1.371.5,2.041.725.41.139.82.277,1.227.423a6.518,6.518,0,0,1,.705,12.09,1.808,1.808,0,0,0-.868,1.084c-.315,1.2-.973,1.788-2.013,1.788Z" fill="#85d3e0"/>
        </g>
      </g>
    </g>
    <g id="_-e-Ellipse_7" data-name="-e-Ellipse 7" transform="translate(2071.25 2916.25)" fill="#edfafe" stroke="#b5e4f4" stroke-linejoin="round" stroke-width="2">
      <circle cx="28.75" cy="28.75" r="28.75" stroke="none"/>
      <circle cx="28.75" cy="28.75" r="27.75" fill="none"/>
    </g>
    <text id="_3" data-name="3" transform="translate(2100 2953.373)" fill="#077997" font-size="22" font-family="MuseoSansRounded-900, 'Museo Sans Rounded \39 00'" font-weight="900"><tspan x="-6" y="0">3</tspan></text>
  </g>
</svg>
