<svg xmlns="http://www.w3.org/2000/svg" xmlns:xlink="http://www.w3.org/1999/xlink" width="364" height="261" viewBox="0 0 364 261">
  <defs>
    <clipPath id="clip-path">
      <rect id="Rectangle_3" data-name="Rectangle 3" width="136" height="113" fill="none"/>
    </clipPath>
    <clipPath id="clip-path-2">
      <rect id="Rectangle_4" data-name="Rectangle 4" width="66" height="90" fill="none"/>
    </clipPath>
  </defs>
  <g id="Group_79" data-name="Group 79" transform="translate(-1259 -2840)">
    <g id="_-e-Vector_Smart_Object" data-name="-e-Vector Smart Object" transform="translate(1230 2840)">
      <rect id="Rectangle_1045" data-name="Rectangle 1045" width="364" height="149" rx="15" transform="translate(29 112)" fill="#077997"/>
      <g id="Rectangle_1045_copy" data-name="Rectangle 1045 copy" transform="translate(29 103)" fill="#fff" stroke="#1e89a7" stroke-linejoin="round" stroke-width="3">
        <rect width="364" height="149" rx="15" stroke="none"/>
        <rect x="1.5" y="1.5" width="361" height="146" rx="13.5" fill="none"/>
      </g>
      <g id="Vector_Smart_Object" data-name="Vector Smart Object" transform="translate(205)">
        <g id="Group_6" data-name="Group 6">
          <g id="Group_5" data-name="Group 5" clip-path="url(#clip-path)">
            <path id="Path_23" data-name="Path 23" d="M133.525,104.025A7.822,7.822,0,1,1,125.7,96.2a7.825,7.825,0,0,1,7.822,7.828" fill="#fff"/>
            <path id="Path_24" data-name="Path 24" d="M17.852,104.025A7.822,7.822,0,1,1,10.03,96.2a7.825,7.825,0,0,1,7.822,7.828" fill="#fff"/>
            <path id="Path_25" data-name="Path 25" d="M104.891,56.12c0,12.853-6.987,23.272-15.605,23.272S73.681,68.973,73.681,56.12s6.987-23.272,15.605-23.272,15.605,10.419,15.605,23.272" fill="#95e8f7"/>
            <path id="Path_26" data-name="Path 26" d="M.093,105.72a7.6,7.6,0,0,0,5.77,5.784,7.559,7.559,0,0,0,4.5,1.5,7.466,7.466,0,0,0,4.221-1.295,7.832,7.832,0,0,0,.9-.721,7.618,7.618,0,0,0,2.53-1.486,7.821,7.821,0,0,0,2.329-3.777h95.194a7.62,7.62,0,0,0,3.824,5.058,7.312,7.312,0,0,0,1.946.726,7.559,7.559,0,0,0,4.5,1.5,7.474,7.474,0,0,0,5.123-2.016,7.687,7.687,0,0,0,4.858-5.264l.211-2.944a7.6,7.6,0,0,0-.157-.883c-.035-.137-.069-.28-.113-.432l-.039-.123a7.555,7.555,0,0,0-.843-1.8c-.034-.054-.064-.1-.1-.162-.069-.1-.142-.2-.216-.3L134.47,99c-.069-.088-.132-.176-.206-.26-.113-.142-.24-.28-.392-.441l-.039-.039a11.217,11.217,0,0,0-8.108-3.214c-4.2,0-7.828,2.021-9.427,4.994a60.109,60.109,0,0,0-4.05-8.487c0-.005,0-.005.005-.01a67.542,67.542,0,0,0,7.377-30.96,65.826,65.826,0,0,0-13.143-40.021,11.285,11.285,0,0,0,.113-1.59c0-5.46-3.764-17.94-8.412-17.94-2.24,0-4.27,2.885-5.775,6.49a46.481,46.481,0,0,0-50.713,0c-1.5-3.605-3.534-6.49-5.77-6.49-4.652,0-8.417,12.48-8.417,17.94a11.158,11.158,0,0,0,.108,1.584A65.843,65.843,0,0,0,14.481,60.587a67.548,67.548,0,0,0,7.378,30.965c0,.005,0,.005,0,.01a60.2,60.2,0,0,0-3.372,6.809c-.02-.025-.044-.044-.064-.069l-.039-.039A11.216,11.216,0,0,0,10.28,95.05c-5.27,0-9.657,3.194-10.231,7.442-.02.093-.035.186-.049.284m17.216-1.123c-.132.373-.26.746-.382,1.123q-.492,1.457-.9,2.944c-.191.687-.368,1.374-.534,2.065a4.35,4.35,0,0,1-1.1.491l-.373.108-.27.275A4.581,4.581,0,0,1,7.432,109l-.3-.255-.392-.064a4.671,4.671,0,0,1-3.579-2.958,4.885,4.885,0,0,1-.215-2.7l.019-.108c0-.044.015-.093.02-.137.436-2.693,3.608-4.783,7.3-4.783a8.4,8.4,0,0,1,5.99,2.311l.044.044c.083.093.167.182.245.275.039.049.079.1.143.186l.039.049c.044.059.084.113.137.192l.059.093a5.03,5.03,0,0,1,.279.505Zm3.338,1.123a7.494,7.494,0,0,0-.157-.883c-.019-.073-.039-.152-.059-.231A57.083,57.083,0,0,1,24.8,92.347s0-.01,0-.014a1.305,1.305,0,0,0,.108-.221.933.933,0,0,0,.035-.122l.014-.044c0-.024.01-.049.015-.069,0-.035.015-.069.02-.1,0-.015,0-.024,0-.034a.764.764,0,0,0,.01-.147v-.368l-.162-.3c-.014-.024-.024-.049-.039-.073a64.445,64.445,0,0,1-7.393-30.264A63.234,63.234,0,0,1,28.7,24.038,52.591,52.591,0,0,1,42.737,10.356a43.608,43.608,0,0,1,48.644,0,52.645,52.645,0,0,1,14.03,13.682,63.234,63.234,0,0,1,11.28,36.549,64.575,64.575,0,0,1-7.4,30.288.171.171,0,0,0-.02.044c-.015.029-.029.054-.044.083s-.014.03-.02.044a.18.18,0,0,0-.014.054,1.109,1.109,0,0,0-.064.255.091.091,0,0,0-.01.034.128.128,0,0,0-.005.044,1.231,1.231,0,0,0-.01.133V91.6c0,.039,0,.079,0,.118s.01.088.02.137a1.012,1.012,0,0,0,.024.127c0,.02.015.044.02.064s.015.044.024.064a1.516,1.516,0,0,0,.113.24,57.384,57.384,0,0,1,4.868,10.43Zm112.117,2.944a4.673,4.673,0,0,1-2.927,2.556l-.372.108-.27.275a4.581,4.581,0,0,1-6.226.339l-.3-.255-.392-.064a4.672,4.672,0,0,1-3.579-2.958,4.9,4.9,0,0,1-.215-2.7l.02-.108c0-.044.014-.093.02-.137.436-2.693,3.608-4.783,7.3-4.783a8.4,8.4,0,0,1,5.99,2.311l.044.044c.083.093.167.182.245.275.039.049.078.1.142.186l.039.049c.044.059.083.113.137.192l.059.093a4.621,4.621,0,0,1,.5,1.084l.025.069c.024.084.044.167.063.27a1.574,1.574,0,0,1,.044.211,4.4,4.4,0,0,1,.1.932,4.731,4.731,0,0,1-.446,2.011" fill="#1e8aa7"/>
            <path id="Path_27" data-name="Path 27" d="M87.892,55.742c-1.614,0-2.923,3.047-2.923,6.807s1.309,6.806,2.923,6.806,2.923-3.047,2.923-6.806-1.309-6.807-2.923-6.807" fill="#1e8aa7"/>
            <path id="Path_28" data-name="Path 28" d="M46.224,55.742c-1.614,0-2.924,3.047-2.924,6.807s1.309,6.806,2.924,6.806,2.923-3.047,2.923-6.806-1.309-6.807-2.923-6.807" fill="#1e8aa7"/>
            <path id="Path_29" data-name="Path 29" d="M74.112,79.76a1.471,1.471,0,0,0-1.47,1.472,2.329,2.329,0,1,1-4.657,0V68.8H68.6a1.492,1.492,0,0,0,0-2.984H64.431a1.492,1.492,0,0,0,0,2.984h.612V81.232a2.329,2.329,0,1,1-4.657,0,1.47,1.47,0,1,0-2.941,0,5.263,5.263,0,0,0,9.069,3.645,5.262,5.262,0,0,0,9.069-3.645,1.471,1.471,0,0,0-1.47-1.472" fill="#1e8aa7"/>
          </g>
        </g>
      </g>
    </g>
    <g id="_-e-Ellipse_7" data-name="-e-Ellipse 7" transform="translate(1296.25 2916.25)" fill="#edfafe" stroke="#b5e4f4" stroke-linejoin="round" stroke-width="2">
      <circle cx="28.75" cy="28.75" r="28.75" stroke="none"/>
      <circle cx="28.75" cy="28.75" r="27.75" fill="none"/>
    </g>
    <text id="_1" data-name="1" transform="translate(1325 2953.373)" fill="#077997" font-size="22" font-family="MuseoSansRounded-900, 'Museo Sans Rounded \39 00'" font-weight="900"><tspan x="-5" y="0">1</tspan></text>
    <g id="_-e-Vector_Smart_Object-2" data-name="-e-Vector Smart Object" transform="translate(1314 2984)">
      <g id="Group_8" data-name="Group 8">
        <g id="Group_7" data-name="Group 7" clip-path="url(#clip-path-2)">
          <path id="Path_30" data-name="Path 30" d="M65.987,20.946V5.908c0-.221,0-.442-.007-.662A5.369,5.369,0,0,0,62.406.356c-.2-.072-.394-.148-.591-.224L61.474,0H4.792L4.707.011C1.432.827-.105,2.983.006,6.6c.09,2.947.07,5.951.05,8.855C.047,16.744.038,18.033.039,19.321c0,.074-.007.154-.015.234a1.172,1.172,0,0,0,.127.826l.018.025c.349.474.783,1.064,1.34,1.129A2.265,2.265,0,0,0,3.1,20.691a1.468,1.468,0,0,0,.26-1.07c0-.059,0-.116,0-.17.013-.77.01-1.547.008-2.3q0-.263,0-.525H62.656V29.082c0,15.771,0,32.079.018,48.119,0,1.354-.247,2.313-1.49,2.915a1.417,1.417,0,0,0-.758.826,1.682,1.682,0,0,0,.15,1.305,1.532,1.532,0,0,0,1.37.912,1.717,1.717,0,0,0,.6-.116,5.12,5.12,0,0,0,1.457-.82A5.685,5.685,0,0,0,66,77.55c-.015-18.868-.014-38.052-.013-56.6m-9.4-17.61q1.765,0,3.531,0c1.777.005,2.537.763,2.541,2.534q.008,3.443,0,6.885c0,.144-.009.294-.02.451H3.393c-.011-.152-.021-.3-.021-.436v-.342q0-3.315,0-6.63c.005-1.7.783-2.462,2.521-2.463H56.583Z" fill="#077997"/>
          <path id="Path_31" data-name="Path 31" d="M58.03,81.188l-.572-.988.585-.337c.68-.391,1.347-.775,2.012-1.161a2.629,2.629,0,0,0,.008-4.926c-3.841-2.216-8.056-4.637-12.886-7.4a2.619,2.619,0,0,0-4.232,2.447c-.009,4.918-.009,9.905,0,14.823A2.616,2.616,0,0,0,47.169,86.1c.672-.38,1.342-.763,2.023-1.152l.632-.361c.16.279.315.555.469.827.494.877.961,1.706,1.5,2.5a9.655,9.655,0,0,0,1.25,1.4c.189.186.385.379.566.572l.1.111h1.472l.081-.045q.507-.285,1.015-.566c.744-.413,1.512-.84,2.26-1.28a2.709,2.709,0,0,0,1.083-4.145c-.524-.92-1.055-1.836-1.6-2.776m-2.312-3.824c-1.941,1.127-2.3,2.5-1.17,4.461l.96,1.658,1.107,1.91L54.77,86.456l-.558-.962c-.547-.944-1.083-1.866-1.623-2.785a2.847,2.847,0,0,0-2.447-1.65,3.682,3.682,0,0,0-1.793.541c-.544.307-1.086.618-1.661.947l-.336.192V69.725l11.326,6.5Z" fill="#85d3e0"/>
          <path id="Path_32" data-name="Path 32" d="M39.528,80.189a5.72,5.72,0,0,0-.969-.053h-.139l-17.374,0H6.315A10.5,10.5,0,0,1,5.246,80.1,2,2,0,0,1,3.379,78.11c-.013-.254-.011-.506-.01-.773V66.131q0-20.076,0-40.151c0-.065,0-.131,0-.2A3.694,3.694,0,0,0,3.3,24.86a1.566,1.566,0,0,0-1.783-1.3A1.552,1.552,0,0,0,.051,25.09c-.019.23-.017.458-.014.677,0,.074,0,.149,0,.223V56.619q0,10.454.005,20.909a7.618,7.618,0,0,0,.137,1.721c.615,2.666,2.73,4.2,5.8,4.2q6.9,0,13.8,0l16.88,0h2a4.875,4.875,0,0,0,.851-.047,1.624,1.624,0,0,0,.013-3.21" fill="#077997"/>
          <path id="Path_33" data-name="Path 33" d="M50.725,56.725a3.406,3.406,0,0,0,2.941-1.342c.923-1.241.922-5.972,0-7.231A3.576,3.576,0,0,0,50.534,46.8h-.006q-13.477.009-26.953.005h-8.2c-.141,0-.286,0-.435.009a3.216,3.216,0,0,0-3.2,3.249c-.026.693-.021,1.4-.016,2.074,0,.243,0,.486,0,.729.005,2.665,1.194,3.853,3.855,3.854q6.64,0,13.282,0h8.729c4.3,0,8.744,0,13.115.008ZM15.063,50.739l-.008-.313a.423.423,0,0,1,.052-.275.3.3,0,0,1,.182-.039l.067,0c.132.009.26.006.383,0l.166,0H50.136a3.235,3.235,0,0,1,.78.043,3.007,3.007,0,0,1,.052.813c0,.2,0,.394-.007.592a13.466,13.466,0,0,0,.019,1.351c.024.295-.029.386-.053.412-.04.043-.164.088-.5.091-3.166-.021-6.384-.019-9.5-.016l-3.113,0h-4.9l-4.073,0c-4.318,0-8.783-.005-13.176.019-.376,0-.51-.058-.558-.108s-.092-.173-.067-.5a20.5,20.5,0,0,0,.019-2.072" fill="#077997"/>
          <path id="Path_34" data-name="Path 34" d="M17.1,32.014c-.642,0-1.305-.007-1.959.008a3.226,3.226,0,0,0-3.405,3.41c-.015.651-.011,1.312-.007,1.95l0,.673c.005,2.669,1.193,3.86,3.849,3.862q5.947,0,11.893,0l12.083,0c3.626,0,7.374,0,11.061.008h.025a3.565,3.565,0,0,0,2.905-1.183c1.08-1.3,1.085-6.229.007-7.54a3.7,3.7,0,0,0-3.093-1.192h-.012q-12.677.014-25.355.008H17.948l-.852,0M15.048,35.86c-.024-.357.044-.461.074-.49a.392.392,0,0,1,.252-.059,1.47,1.47,0,0,1,.161.01,6.378,6.378,0,0,0,.892.017c.125,0,.249-.007.373-.007H50.1a3.107,3.107,0,0,1,.816.049,3.015,3.015,0,0,1,.055.847q0,.785,0,1.569a3.65,3.65,0,0,1-.038.764,2.886,2.886,0,0,1-.74.045H32.927l-4.213,0c-4.248,0-8.641-.007-12.963.022-.342,0-.552-.042-.634-.131a.82.82,0,0,1-.073-.573,12.668,12.668,0,0,0,0-2.059" fill="#077997"/>
          <path id="Path_35" data-name="Path 35" d="M36.309,62.588c-.75-.028-1.509-.021-2.244-.014q-1.022.009-2.045,0c-.754-.008-1.534-.015-2.3.014a4.9,4.9,0,0,0,.049,9.789c1.077.021,2.162.031,3.246.031s2.169-.01,3.246-.031a4.9,4.9,0,0,0,.052-9.789m-2.434,6.49-.915,0h0l-.85,0c-.648,0-1.3,0-1.945,0a1.525,1.525,0,0,1-1.722-1.6,1.481,1.481,0,0,1,1.65-1.576c2-.02,3.974-.02,5.853,0a1.476,1.476,0,0,1,1.635,1.59,1.509,1.509,0,0,1-1.653,1.588c-.683.011-1.38.008-2.053.005" fill="#077997"/>
          <path id="Path_36" data-name="Path 36" d="M20.971,24.239c.057,0,.122,0,.17,0q11.863,0,23.725,0l.185,0,.2,0a2.283,2.283,0,0,0,.569-.059A1.587,1.587,0,0,0,47.117,22.5a1.564,1.564,0,0,0-1.438-1.555,3.645,3.645,0,0,0-.64-.025c-.067,0-.142.006-.2,0h-23.2l-.312,0c-.278,0-.565-.008-.853.015a1.593,1.593,0,0,0-1.569,1.531,1.629,1.629,0,0,0,1.489,1.752,3.82,3.82,0,0,0,.577.021" fill="#077997"/>
          <path id="Path_37" data-name="Path 37" d="M10,3.97a4.341,4.341,0,0,0-3.08,1.282,4.324,4.324,0,0,0,.049,6.134,4.347,4.347,0,0,0,3.06,1.246h.039a4.376,4.376,0,0,0,3.091-1.311,4.27,4.27,0,0,0,1.253-3.06A4.371,4.371,0,0,0,10,3.97M9,8.264a1,1,0,0,1,1.012-.976h.015a1.055,1.055,0,0,1,.745.3A.975.975,0,0,1,10.769,9a1.065,1.065,0,0,1-.753.307h0A1.023,1.023,0,0,1,9.286,9,1,1,0,0,1,9,8.264" fill="#077997"/>
          <path id="Path_38" data-name="Path 38" d="M20.54,3.97h-.03a4.326,4.326,0,0,0-4.326,4.365,4.284,4.284,0,0,0,1.3,3.055,4.346,4.346,0,0,0,3.055,1.243h.046a4.378,4.378,0,0,0,3.091-1.316,4.268,4.268,0,0,0,1.248-3.061A4.372,4.372,0,0,0,20.54,3.97M19.52,8.312a.992.992,0,0,1,.285-.722,1.036,1.036,0,0,1,.744-.3h0A1.052,1.052,0,0,1,21.3,7.6a.978.978,0,0,1,.289.709,1,1,0,0,1-.32.707,1.044,1.044,0,0,1-.755.293,1.019,1.019,0,0,1-1-1" fill="#077997"/>
          <path id="Path_39" data-name="Path 39" d="M31.1,3.97h-.027A4.371,4.371,0,0,0,28,5.213,4.268,4.268,0,0,0,26.7,8.266a4.363,4.363,0,0,0,4.334,4.367h.035a4.365,4.365,0,0,0,4.375-4.306,4.265,4.265,0,0,0-1.253-3.059A4.369,4.369,0,0,0,31.1,3.97M32.11,8.3a.991.991,0,0,1-.311.707,1.088,1.088,0,0,1-.755.3,1.025,1.025,0,0,1-.729-.319,1.007,1.007,0,0,1,.74-1.7h.01a1.054,1.054,0,0,1,.747.3A.984.984,0,0,1,32.11,8.3Z" fill="#077997"/>
        </g>
      </g>
    </g>
  </g>
</svg>
